<svg id="svg" version="1.1" xmlns="http://www.w3.org/2000/svg" xmlns:xlink="http://www.w3.org/1999/xlink" width="400" height="266.1818181818182" viewBox="0, 0, 400,266.1818181818182"><g id="svgg"><path id="path0" d="M0.000 134.221 C 0.000 134.398,66.844 134.487,200.000 134.487 C 333.156 134.487,400.000 134.398,400.000 134.221 C 400.000 134.044,333.156 133.955,200.000 133.955 C 66.844 133.955,0.000 134.044,0.000 134.221 M0.000 167.510 L 0.000 199.467 200.000 199.467 L 400.000 199.467 400.000 167.510 L 400.000 135.553 200.000 135.553 L 0.000 135.553 0.000 167.510 " stroke="none" fill="#043484" fill-rule="evenodd"></path><path id="path1" d="M0.000 232.889 L 0.000 266.312 200.000 266.312 L 400.000 266.312 400.000 232.889 L 400.000 199.467 200.000 199.467 L 0.000 199.467 0.000 232.889 " stroke="none" fill="#cb132c" fill-rule="evenodd"></path><path id="path2" d="M0.000 66.312 L 0.000 132.623 200.000 132.623 L 400.000 132.623 400.000 66.312 L 400.000 0.000 200.000 0.000 L 0.000 0.000 0.000 66.312 " stroke="none" fill="#fccc04" fill-rule="evenodd"></path><path id="path3" d="M0.000 133.289 L 0.000 133.955 200.000 133.955 L 400.000 133.955 400.000 133.289 L 400.000 132.623 200.000 132.623 L 0.000 132.623 0.000 133.289 " stroke="none" fill="#a48c5c" fill-rule="evenodd"></path><path id="path4" d="M0.000 135.020 C 0.000 135.552,0.178 135.553,200.000 135.553 C 399.822 135.553,400.000 135.552,400.000 135.020 C 400.000 134.488,399.822 134.487,200.000 134.487 C 0.178 134.487,0.000 134.488,0.000 135.020 " stroke="none" fill="#04248c" fill-rule="evenodd"></path></g></svg>