<svg id="svg" version="1.1" xmlns="http://www.w3.org/2000/svg" xmlns:xlink="http://www.w3.org/1999/xlink" width="400" height="249.2957746478873" viewBox="0, 0, 400,249.2957746478873"><g id="svgg"><path id="path0" d="M0.000 41.397 L 0.000 82.793 200.000 82.793 L 400.000 82.793 400.000 41.397 L 400.000 0.000 200.000 0.000 L 0.000 0.000 0.000 41.397 M0.000 207.980 L 0.000 249.377 200.000 249.377 L 400.000 249.377 400.000 207.980 L 400.000 166.584 200.000 166.584 L 0.000 166.584 0.000 207.980 " stroke="none" fill="#73abdc" fill-rule="evenodd"></path><path id="path1" d="M0.000 124.688 L 0.000 166.085 200.000 166.085 L 400.000 166.085 400.000 124.688 L 400.000 83.292 200.000 83.292 L 0.000 83.292 0.000 124.688 M194.371 90.835 C 194.435 91.144,194.531 92.043,194.584 92.832 C 194.652 93.855,194.831 94.429,195.205 94.827 C 195.494 95.135,195.838 95.866,195.969 96.451 C 196.101 97.037,196.382 97.781,196.594 98.104 C 196.864 98.516,197.022 99.617,197.123 101.777 C 197.288 105.317,197.513 106.777,197.914 106.911 C 198.366 107.061,198.474 105.776,198.651 98.130 C 198.829 90.378,198.849 90.274,200.163 90.274 C 201.270 90.274,201.204 89.911,201.463 97.382 C 201.586 100.948,201.768 104.061,201.867 104.300 C 202.163 105.015,202.448 104.566,202.632 103.096 C 202.747 102.173,203.009 101.467,203.418 100.982 C 203.972 100.324,204.049 99.940,204.229 96.948 C 204.495 92.504,205.420 90.773,207.528 90.773 C 207.904 90.773,207.975 90.857,207.795 91.085 C 207.401 91.584,207.212 93.388,207.158 97.175 C 207.111 100.414,207.062 100.756,206.567 101.289 C 205.996 101.905,205.316 104.682,205.573 105.352 C 205.958 106.357,206.785 105.594,207.079 103.962 C 207.169 103.466,207.464 102.860,207.736 102.614 C 208.007 102.368,208.229 101.997,208.229 101.789 C 208.229 101.581,208.578 100.673,209.004 99.770 C 210.656 96.273,210.948 95.605,211.225 94.698 C 211.501 93.797,212.796 92.519,213.434 92.519 C 214.191 92.519,214.280 94.180,213.567 95.016 C 213.390 95.224,213.121 95.950,212.968 96.629 C 212.816 97.309,212.479 98.208,212.219 98.628 C 211.960 99.049,211.625 99.950,211.476 100.631 C 211.327 101.313,210.982 102.177,210.710 102.552 C 210.105 103.387,209.786 105.340,210.213 105.604 C 210.918 106.040,214.995 101.112,215.307 99.446 C 215.513 98.348,218.296 95.451,219.037 95.563 C 220.084 95.722,220.336 96.678,219.533 97.442 C 218.707 98.226,217.629 100.324,217.049 102.277 C 216.634 103.676,216.253 104.231,214.140 106.513 C 211.804 109.035,211.721 109.154,211.721 109.948 C 211.721 110.971,211.774 110.950,213.551 109.242 C 213.710 109.089,213.988 108.827,214.169 108.659 C 214.350 108.491,215.448 107.428,216.609 106.297 C 217.770 105.165,218.783 104.239,218.861 104.239 C 218.939 104.239,219.943 103.286,221.094 102.120 C 222.901 100.287,223.299 100.000,224.031 100.000 C 225.240 100.000,225.683 100.608,224.993 101.323 C 223.737 102.627,219.669 106.869,217.889 108.732 C 216.824 109.847,216.025 110.876,216.114 111.019 C 216.341 111.387,218.151 111.098,218.693 110.608 C 218.941 110.384,219.576 110.081,220.106 109.935 C 221.157 109.644,221.924 109.084,224.189 106.949 C 225.922 105.315,227.216 104.932,228.782 105.586 C 230.163 106.163,229.735 107.232,228.124 107.232 C 227.498 107.232,225.436 108.922,225.436 109.434 C 225.436 109.600,225.158 109.863,224.818 110.018 C 224.478 110.173,224.137 110.495,224.061 110.734 C 223.986 110.973,223.599 111.303,223.202 111.467 C 222.805 111.632,222.421 111.920,222.349 112.107 C 222.277 112.295,221.596 112.629,220.835 112.850 C 220.074 113.071,219.451 113.342,219.451 113.451 C 219.451 113.560,218.882 113.886,218.185 114.175 C 217.240 114.568,216.942 114.814,217.009 115.144 C 217.137 115.765,218.715 115.616,220.324 114.831 C 221.010 114.496,222.115 114.105,222.780 113.963 C 223.445 113.820,224.150 113.542,224.347 113.345 C 224.694 112.997,226.218 112.473,226.888 112.470 C 227.070 112.469,227.703 112.184,228.297 111.837 C 230.397 110.606,233.063 110.900,232.525 112.303 C 232.387 112.663,231.027 113.212,230.264 113.216 C 230.107 113.216,229.921 113.368,229.850 113.552 C 229.779 113.737,229.178 114.034,228.514 114.213 C 227.850 114.392,227.082 114.739,226.808 114.985 C 226.534 115.230,225.821 115.541,225.225 115.674 C 224.629 115.808,223.924 116.151,223.658 116.436 C 223.393 116.721,222.746 117.023,222.221 117.107 C 220.825 117.330,220.521 117.566,220.955 118.089 C 221.552 118.809,227.383 118.519,228.470 117.715 C 229.435 117.001,232.876 116.655,233.539 117.206 C 234.566 118.058,233.685 119.926,232.510 119.391 C 232.089 119.199,231.735 119.231,231.122 119.514 C 230.670 119.723,230.019 119.978,229.676 120.080 C 229.333 120.182,228.722 120.498,228.318 120.783 C 227.687 121.227,227.078 121.321,224.025 121.448 C 220.275 121.604,220.099 121.642,220.338 122.264 C 220.718 123.255,221.956 123.462,228.370 123.612 C 233.390 123.729,234.620 123.827,234.975 124.136 C 236.284 125.276,235.116 125.627,229.426 125.803 C 222.616 126.014,222.398 126.052,222.493 127.011 C 222.557 127.655,222.707 127.811,223.441 127.991 C 223.921 128.109,224.875 128.420,225.561 128.682 C 226.347 128.983,227.794 129.217,229.479 129.316 C 232.377 129.486,233.717 130.084,234.066 131.362 C 234.381 132.515,233.097 133.097,232.206 132.206 C 231.548 131.548,230.580 131.430,228.961 131.809 C 227.350 132.186,224.444 131.646,222.070 130.530 C 220.366 129.729,218.924 129.543,218.038 130.011 L 217.332 130.384 218.034 130.653 C 218.420 130.801,218.881 130.923,219.059 130.923 C 219.236 130.923,219.772 131.187,220.248 131.511 C 220.725 131.834,221.523 132.175,222.021 132.269 C 222.520 132.362,223.240 132.699,223.621 133.016 C 224.002 133.334,224.763 133.675,225.312 133.775 C 225.860 133.874,226.534 134.157,226.808 134.403 C 227.082 134.650,227.756 134.994,228.304 135.168 C 228.853 135.342,229.569 135.692,229.896 135.946 C 230.224 136.201,230.744 136.409,231.053 136.409 C 232.047 136.409,232.790 137.212,232.426 137.892 C 232.032 138.629,229.532 138.511,228.440 137.704 C 228.075 137.433,227.144 137.081,226.372 136.921 C 225.600 136.760,224.689 136.410,224.349 136.142 C 224.008 135.874,223.132 135.543,222.401 135.406 C 221.670 135.269,220.759 134.926,220.376 134.645 C 219.681 134.135,218.487 134.069,218.384 134.535 C 218.354 134.671,218.638 134.929,219.015 135.110 C 219.392 135.291,219.701 135.528,219.701 135.638 C 219.701 135.833,221.163 137.334,222.699 138.716 C 223.119 139.093,223.654 139.401,223.888 139.401 C 225.786 139.401,228.678 141.897,228.678 143.536 C 228.678 144.950,226.900 144.622,226.367 143.111 C 226.270 142.836,225.783 142.651,224.846 142.534 C 224.085 142.439,223.189 142.143,222.847 141.874 C 222.506 141.605,221.786 141.230,221.248 141.040 C 220.709 140.850,219.978 140.404,219.622 140.048 C 219.266 139.693,218.876 139.401,218.755 139.401 C 218.633 139.401,218.406 139.121,218.250 138.778 C 218.094 138.435,217.809 138.155,217.617 138.155 C 217.425 138.155,217.111 137.919,216.920 137.631 C 216.729 137.343,216.154 136.963,215.643 136.787 C 214.261 136.312,214.401 137.016,216.022 138.700 C 216.743 139.448,218.229 141.038,219.327 142.233 C 220.424 143.429,221.470 144.543,221.651 144.710 C 221.832 144.876,222.169 145.223,222.399 145.479 C 222.629 145.736,222.964 146.073,223.142 146.228 C 223.320 146.382,223.600 146.660,223.765 146.845 C 223.930 147.030,224.384 147.494,224.775 147.876 C 225.380 148.469,225.443 148.649,225.202 149.098 C 224.750 149.944,223.592 149.793,222.552 148.753 C 222.072 148.273,221.589 147.880,221.478 147.880 C 221.368 147.880,221.149 147.600,220.993 147.257 C 220.837 146.914,220.598 146.633,220.463 146.633 C 220.327 146.633,219.258 145.680,218.087 144.514 C 216.916 143.348,215.864 142.394,215.750 142.394 C 215.635 142.394,215.414 142.113,215.257 141.771 C 215.064 141.346,214.773 141.147,214.344 141.147 C 213.888 141.147,213.716 141.014,213.716 140.663 C 213.716 140.397,213.603 140.110,213.466 140.025 C 213.039 139.761,213.193 140.855,213.720 141.834 C 213.997 142.348,214.292 143.184,214.374 143.692 C 214.456 144.200,214.735 144.806,214.993 145.040 C 215.250 145.273,215.461 145.608,215.461 145.785 C 215.461 145.962,216.056 146.758,216.782 147.554 C 219.128 150.127,220.244 152.352,219.698 153.372 C 219.271 154.170,218.550 153.960,217.784 152.815 C 217.398 152.237,216.149 150.829,215.008 149.687 C 213.867 148.544,212.761 147.193,212.551 146.685 C 212.342 146.177,212.023 145.592,211.844 145.387 C 211.664 145.181,211.384 144.510,211.220 143.896 C 211.057 143.282,210.671 142.546,210.364 142.261 C 210.056 141.976,209.690 141.537,209.549 141.285 C 208.729 139.821,208.516 141.740,209.321 143.337 C 209.647 143.984,209.997 144.906,210.099 145.387 C 210.201 145.867,210.539 146.708,210.850 147.257 C 211.161 147.805,211.489 148.671,211.578 149.181 C 211.667 149.691,212.015 150.589,212.351 151.176 C 212.687 151.764,212.963 152.467,212.965 152.740 C 212.966 153.012,213.264 153.821,213.627 154.537 C 214.262 155.794,214.270 155.862,213.858 156.492 L 213.431 157.144 212.638 156.541 C 212.202 156.209,211.659 155.555,211.430 155.088 C 210.562 153.313,209.760 151.473,209.592 150.873 C 209.496 150.530,209.263 150.073,209.074 149.857 C 208.885 149.642,208.575 148.946,208.384 148.312 C 208.193 147.677,207.799 146.857,207.510 146.488 C 207.220 146.120,206.983 145.614,206.983 145.365 C 206.983 144.586,206.425 143.582,206.195 143.946 C 205.670 144.773,205.962 150.803,206.584 151.974 C 207.477 153.653,207.888 156.280,207.483 157.724 C 206.817 160.102,205.486 159.628,205.486 157.013 C 205.486 155.748,205.371 155.302,204.866 154.617 C 204.525 154.155,204.171 153.378,204.079 152.891 C 203.988 152.404,203.706 151.666,203.454 151.252 C 203.098 150.669,202.994 149.992,202.992 148.254 C 202.989 146.125,202.632 143.069,202.328 142.578 C 201.858 141.817,201.671 143.583,201.470 150.663 C 201.212 159.739,201.318 159.154,199.940 159.054 L 198.878 158.978 198.689 152.568 C 198.470 145.100,197.978 142.830,197.403 146.633 C 197.310 147.251,196.942 148.178,196.586 148.693 C 195.998 149.546,195.927 149.910,195.817 152.683 C 195.658 156.692,194.749 158.603,193.002 158.603 C 192.336 158.603,192.335 158.599,192.583 157.419 C 192.719 156.767,192.851 154.583,192.874 152.564 C 192.913 149.210,192.962 148.844,193.442 148.324 C 194.049 147.667,194.510 146.165,194.512 144.840 C 194.515 143.148,193.438 143.387,193.141 145.144 C 193.050 145.681,192.777 146.376,192.534 146.688 C 192.290 147.001,191.938 147.706,191.751 148.254 C 191.563 148.803,191.211 149.519,190.967 149.847 C 190.723 150.174,190.524 150.613,190.524 150.822 C 190.524 151.032,190.255 151.662,189.926 152.222 C 189.598 152.783,189.198 153.731,189.037 154.329 C 188.761 155.354,187.944 156.369,186.979 156.886 C 186.077 157.369,185.645 155.512,186.445 154.590 C 186.635 154.371,186.956 153.555,187.159 152.775 C 187.362 151.996,187.699 151.098,187.907 150.780 C 188.116 150.461,188.458 149.542,188.668 148.736 C 188.878 147.931,189.207 147.098,189.398 146.886 C 189.791 146.452,190.247 144.677,190.088 144.202 C 189.920 143.701,189.408 143.840,188.705 144.576 C 188.345 144.953,187.598 145.711,187.045 146.259 C 186.491 146.808,186.038 147.352,186.037 147.468 C 186.036 147.584,185.801 148.008,185.514 148.410 C 185.228 148.812,184.881 149.559,184.745 150.070 C 184.436 151.222,181.931 153.865,181.148 153.865 C 180.027 153.865,179.682 152.104,180.736 151.762 C 181.194 151.614,182.897 148.081,183.164 146.727 C 183.249 146.299,183.592 145.690,183.928 145.374 C 184.264 145.059,184.539 144.696,184.539 144.568 C 184.539 144.439,185.184 143.680,185.973 142.879 C 188.444 140.371,188.599 140.141,188.383 139.280 L 188.221 138.638 187.689 139.153 C 185.228 141.534,183.984 142.643,183.775 142.643 C 183.640 142.643,183.422 142.924,183.292 143.267 C 183.161 143.610,182.942 143.890,182.805 143.890 C 182.667 143.890,181.247 145.181,179.649 146.758 C 176.558 149.809,175.872 150.159,174.960 149.151 C 174.518 148.664,174.799 148.316,179.317 143.766 C 179.454 143.628,179.702 143.370,179.870 143.191 C 180.037 143.012,181.044 141.956,182.107 140.845 C 183.170 139.733,184.040 138.729,184.040 138.614 C 184.040 138.248,181.877 138.379,181.557 138.764 C 181.393 138.963,180.719 139.304,180.060 139.523 C 179.401 139.742,178.672 140.130,178.440 140.387 C 178.208 140.643,177.694 140.987,177.297 141.151 C 176.900 141.316,176.514 141.634,176.439 141.860 C 175.850 143.637,171.642 144.845,170.667 143.516 C 170.213 142.897,170.962 142.145,172.035 142.143 C 172.447 142.143,172.989 141.840,173.485 141.333 C 174.582 140.211,176.818 138.033,177.496 137.425 C 177.807 137.147,178.676 136.741,179.429 136.522 C 180.182 136.303,180.798 136.029,180.798 135.913 C 180.798 135.797,181.303 135.509,181.920 135.274 C 183.023 134.852,183.454 134.096,182.731 133.852 C 182.292 133.704,180.360 134.269,179.187 134.889 C 178.643 135.177,177.908 135.411,177.552 135.411 C 177.196 135.411,176.540 135.680,176.095 136.009 C 175.639 136.345,174.580 136.740,173.677 136.910 C 172.793 137.077,172.070 137.301,172.070 137.408 C 172.070 138.101,168.475 138.699,167.880 138.105 C 167.208 137.433,167.984 136.409,169.165 136.409 C 169.338 136.409,169.844 136.140,170.290 135.811 C 170.736 135.481,171.516 135.135,172.022 135.040 C 172.528 134.946,173.143 134.655,173.387 134.394 C 173.632 134.132,174.288 133.846,174.845 133.757 C 175.402 133.667,176.043 133.397,176.270 133.155 C 176.497 132.913,177.351 132.522,178.167 132.285 L 179.651 131.856 179.040 131.361 C 178.115 130.612,172.937 130.806,171.821 131.631 C 170.485 132.619,167.369 132.894,166.397 132.110 C 165.303 131.229,166.363 129.664,167.708 130.175 C 168.251 130.382,168.489 130.357,168.820 130.057 C 169.052 129.847,169.413 129.676,169.623 129.676 C 169.833 129.676,170.666 129.318,171.474 128.881 C 172.858 128.132,173.144 128.076,176.434 127.913 C 180.546 127.709,180.050 127.839,180.050 126.962 L 180.050 126.244 177.993 126.093 C 176.861 126.010,173.554 125.870,170.644 125.780 C 165.823 125.633,165.313 125.575,164.910 125.129 C 163.993 124.115,165.146 123.691,168.816 123.691 C 173.226 123.691,179.896 123.358,178.678 123.198 C 177.816 123.085,177.670 122.975,177.602 122.387 C 177.537 121.818,177.353 121.664,176.480 121.445 C 175.906 121.302,175.044 121.000,174.564 120.776 C 174.013 120.518,172.612 120.302,170.767 120.189 C 168.038 120.022,167.786 119.963,166.992 119.294 C 165.065 117.675,166.010 115.898,168.048 117.309 C 169.105 118.042,169.365 118.070,171.349 117.660 C 172.550 117.412,173.009 117.430,174.231 117.772 C 175.031 117.997,176.052 118.239,176.499 118.311 C 176.946 118.383,177.647 118.690,178.056 118.993 C 179.014 119.701,181.431 119.920,182.170 119.366 C 182.645 119.010,182.612 118.978,181.496 118.696 C 180.852 118.534,179.960 118.132,179.515 117.804 C 179.070 117.476,178.467 117.207,178.174 117.207 C 177.881 117.207,177.145 116.880,176.539 116.480 C 175.933 116.080,175.007 115.673,174.481 115.575 C 173.956 115.478,173.468 115.245,173.396 115.059 C 173.324 114.872,172.800 114.596,172.231 114.446 C 171.662 114.296,170.916 113.989,170.574 113.764 C 170.231 113.538,169.445 113.183,168.828 112.974 C 167.613 112.562,167.234 111.820,167.941 111.233 C 168.463 110.801,170.862 111.109,171.622 111.707 C 171.938 111.956,172.900 112.339,173.759 112.559 C 174.618 112.780,175.628 113.175,176.002 113.439 C 176.377 113.703,177.127 113.994,177.669 114.087 C 178.211 114.180,179.142 114.515,179.737 114.832 C 180.750 115.372,181.796 115.426,181.796 114.940 C 181.796 114.822,181.459 114.552,181.047 114.339 C 180.636 114.126,180.299 113.843,180.299 113.709 C 180.299 113.393,178.377 111.471,178.061 111.471 C 177.927 111.471,177.638 111.198,177.419 110.864 C 177.200 110.529,176.664 110.179,176.229 110.084 C 173.546 109.501,171.133 107.331,171.362 105.709 C 171.524 104.563,173.092 104.864,173.575 106.132 C 173.737 106.559,174.110 106.732,175.335 106.948 C 176.190 107.098,177.123 107.434,177.410 107.695 C 177.696 107.955,178.376 108.311,178.922 108.486 C 179.467 108.661,180.120 109.067,180.374 109.390 C 180.627 109.712,180.997 109.975,181.196 109.975 C 181.396 109.975,181.665 110.256,181.796 110.599 C 181.926 110.941,182.143 111.222,182.278 111.222 C 182.413 111.222,182.784 111.503,183.103 111.847 C 183.422 112.191,184.044 112.576,184.485 112.703 C 185.692 113.049,185.542 112.305,184.102 110.797 C 180.024 106.526,178.554 104.919,178.554 104.733 C 178.554 104.617,178.346 104.457,178.093 104.376 C 177.839 104.296,177.505 103.951,177.350 103.611 C 177.195 103.271,176.895 102.993,176.683 102.993 C 176.472 102.993,176.171 102.714,176.016 102.373 C 175.861 102.032,175.468 101.579,175.144 101.367 C 174.661 101.050,174.602 100.893,174.818 100.490 C 175.232 99.715,176.778 99.824,177.602 100.686 C 177.962 101.063,178.375 101.484,178.518 101.621 C 178.661 101.758,178.980 102.074,179.227 102.324 C 181.158 104.276,184.111 106.983,184.309 106.983 C 184.442 106.983,184.658 107.263,184.788 107.606 C 184.952 108.037,185.214 108.229,185.637 108.229 C 186.075 108.229,186.272 108.384,186.329 108.771 C 186.373 109.069,186.554 109.360,186.732 109.419 C 187.125 109.548,186.887 108.312,186.407 107.731 C 186.237 107.525,185.961 106.767,185.792 106.047 C 185.624 105.326,185.383 104.673,185.258 104.596 C 185.133 104.518,184.818 104.042,184.559 103.537 C 184.299 103.032,183.629 102.170,183.069 101.621 C 181.598 100.179,180.299 97.983,180.299 96.938 C 180.299 95.844,180.859 95.299,181.476 95.792 C 182.140 96.324,183.026 97.357,183.035 97.611 C 183.039 97.738,184.038 98.822,185.254 100.022 C 186.515 101.265,187.541 102.498,187.639 102.890 C 187.734 103.267,188.030 103.855,188.298 104.195 C 188.565 104.535,188.854 105.249,188.939 105.782 C 189.030 106.354,189.284 106.853,189.557 106.999 C 189.811 107.135,190.194 107.584,190.407 107.996 C 190.620 108.407,190.902 108.678,191.033 108.597 C 191.466 108.329,191.282 107.051,190.651 105.948 C 190.310 105.351,190.030 104.662,190.028 104.416 C 190.026 104.170,189.688 103.249,189.277 102.369 C 188.865 101.489,188.529 100.532,188.529 100.242 C 188.529 99.952,188.252 99.243,187.915 98.667 C 187.577 98.091,187.177 97.040,187.025 96.332 C 186.873 95.624,186.588 94.912,186.392 94.749 C 185.948 94.380,185.928 93.258,186.356 92.674 C 186.733 92.159,189.027 94.035,189.027 94.859 C 189.027 95.254,189.456 96.262,191.159 99.875 C 191.482 100.561,191.818 101.423,191.906 101.790 C 191.993 102.157,192.279 102.651,192.541 102.888 C 192.803 103.125,193.023 103.554,193.029 103.842 C 193.051 104.876,193.674 105.935,193.923 105.362 C 194.383 104.304,194.183 98.672,193.657 97.869 C 192.449 96.027,192.112 91.786,193.077 90.586 C 193.490 90.073,194.243 90.218,194.371 90.835 M204.920 106.136 C 204.820 106.236,204.742 106.551,204.746 106.837 C 204.753 107.317,204.773 107.322,205.013 106.911 C 205.292 106.431,205.220 105.835,204.920 106.136 M215.960 116.209 C 215.960 116.347,216.128 116.459,216.334 116.459 C 216.540 116.459,216.708 116.347,216.708 116.209 C 216.708 116.072,216.540 115.960,216.334 115.960 C 216.128 115.960,215.960 116.072,215.960 116.209 M183.465 133.077 C 183.199 133.343,183.532 133.654,183.922 133.504 C 184.122 133.427,184.224 133.264,184.148 133.141 C 183.987 132.879,183.690 132.852,183.465 133.077 M194.943 142.456 C 194.873 142.902,194.917 143.373,195.039 143.504 C 195.172 143.645,195.262 143.318,195.262 142.693 C 195.262 141.443,195.117 141.335,194.943 142.456 " stroke="none" fill="#fafaf9" fill-rule="evenodd"></path><path id="path2" d="M193.418 92.166 C 193.007 93.238,193.350 96.010,193.894 96.010 C 194.386 96.010,194.763 98.769,194.765 102.390 C 194.766 105.185,194.832 105.710,195.262 106.359 C 195.803 107.177,195.917 108.718,195.494 109.509 C 195.122 110.203,194.599 109.724,194.393 108.500 C 194.286 107.868,194.000 107.379,193.536 107.036 C 193.027 106.660,192.800 106.235,192.697 105.463 C 192.619 104.880,192.380 104.306,192.167 104.187 C 191.953 104.067,191.601 103.357,191.383 102.608 C 191.165 101.860,190.896 101.247,190.784 101.247 C 190.165 101.247,190.407 103.909,191.089 104.591 C 191.435 104.937,192.020 106.971,192.020 107.829 C 192.020 108.007,192.244 108.355,192.519 108.603 C 193.075 109.107,193.139 109.624,192.765 110.606 L 192.513 111.269 191.581 110.490 C 190.313 109.431,190.373 109.493,189.403 108.229 C 188.929 107.612,188.475 106.806,188.394 106.439 C 188.313 106.071,188.092 105.642,187.903 105.484 C 187.713 105.327,187.375 104.646,187.151 103.971 C 186.926 103.296,186.649 102.743,186.534 102.743 C 186.419 102.743,186.083 102.352,185.788 101.875 C 185.123 100.798,183.846 99.845,183.514 100.177 C 183.176 100.515,183.488 101.175,184.054 101.323 C 184.317 101.392,184.642 101.735,184.775 102.086 C 184.908 102.436,185.235 102.940,185.500 103.206 C 185.765 103.471,186.111 104.286,186.267 105.018 C 186.424 105.749,186.759 106.574,187.011 106.852 C 187.263 107.129,187.600 107.764,187.759 108.262 C 187.918 108.759,188.269 109.366,188.538 109.609 C 188.807 109.853,189.027 110.187,189.027 110.351 C 189.027 110.516,189.317 110.963,189.670 111.344 C 190.241 111.960,190.271 112.080,189.941 112.411 C 189.573 112.779,187.032 111.053,187.032 110.435 C 187.032 110.319,186.913 110.224,186.768 110.224 C 186.622 110.224,185.553 109.271,184.393 108.105 C 183.232 106.939,182.205 105.985,182.110 105.985 C 182.015 105.985,181.709 105.770,181.430 105.508 C 179.624 103.810,179.227 103.491,178.921 103.491 C 178.733 103.491,178.464 103.295,178.324 103.055 C 178.097 102.665,178.069 102.678,178.062 103.180 C 178.057 103.614,178.196 103.741,178.678 103.741 C 179.178 103.741,179.302 103.865,179.302 104.369 C 179.302 104.798,179.500 105.089,179.925 105.282 C 180.268 105.439,180.549 105.775,180.549 106.030 C 180.549 106.286,180.829 106.622,181.172 106.779 C 181.515 106.935,181.796 107.156,181.796 107.271 C 181.796 107.385,183.086 108.768,184.663 110.344 C 186.771 112.450,187.531 113.372,187.531 113.824 C 187.531 114.162,187.728 114.553,187.968 114.693 C 188.564 115.041,188.325 115.024,186.432 114.585 C 185.394 114.344,184.579 113.982,184.184 113.587 C 183.843 113.246,183.387 112.968,183.170 112.968 C 182.815 112.968,182.196 112.456,180.297 110.590 C 179.952 110.252,179.539 109.975,179.378 109.975 C 179.217 109.975,179.015 109.751,178.928 109.477 C 178.751 108.920,177.641 108.582,176.372 108.699 C 175.777 108.754,176.063 109.468,176.746 109.634 C 177.445 109.804,178.769 110.813,180.842 112.754 C 183.220 114.982,183.783 115.461,184.021 115.461 C 184.719 115.461,185.516 116.082,185.585 116.680 C 185.638 117.137,185.829 117.356,186.222 117.411 C 186.531 117.455,186.783 117.598,186.783 117.728 C 186.783 117.973,185.603 117.776,185.162 117.456 C 185.025 117.357,184.298 117.206,183.546 117.122 C 182.619 117.017,182.057 116.811,181.800 116.482 C 181.562 116.177,180.958 115.932,180.175 115.822 C 178.883 115.641,178.047 115.317,177.769 114.890 C 177.558 114.567,175.419 114.243,175.041 114.477 C 174.532 114.791,175.036 115.177,176.179 115.349 C 176.955 115.465,177.401 115.692,177.675 116.111 C 177.959 116.544,178.296 116.708,178.900 116.708 C 179.388 116.708,180.026 116.941,180.441 117.269 C 180.830 117.578,181.771 117.999,182.532 118.206 C 184.109 118.634,185.353 120.179,184.539 120.701 C 184.048 121.015,182.634 121.013,182.044 120.698 C 181.788 120.561,180.701 120.327,179.629 120.180 C 178.234 119.987,177.516 119.757,177.100 119.369 C 176.512 118.820,169.280 118.381,168.125 118.824 C 167.292 119.144,168.431 119.443,170.574 119.469 C 173.800 119.506,175.467 119.777,176.115 120.368 C 176.428 120.653,177.132 120.965,177.681 121.062 C 178.229 121.159,179.043 121.463,179.488 121.737 C 179.934 122.011,181.221 122.396,182.348 122.593 C 187.981 123.576,182.618 124.365,169.902 124.423 C 166.609 124.438,165.329 124.677,166.649 125.031 C 166.956 125.113,170.717 125.182,175.008 125.184 C 185.930 125.188,186.438 125.427,181.343 128.157 C 180.898 128.396,179.494 128.548,176.981 128.628 C 174.268 128.716,173.241 128.834,173.151 129.070 C 173.083 129.248,172.419 129.584,171.676 129.818 C 170.932 130.052,170.324 130.328,170.324 130.431 C 170.324 131.105,172.902 130.869,173.406 130.149 C 173.692 129.741,174.236 129.677,178.422 129.564 C 182.140 129.463,183.204 129.357,183.536 129.057 C 183.998 128.639,185.176 128.546,185.400 128.910 C 185.479 129.037,185.320 129.212,185.048 129.299 C 184.775 129.385,184.409 129.752,184.233 130.113 C 183.994 130.608,183.556 130.877,182.461 131.201 C 181.661 131.438,180.861 131.830,180.684 132.073 C 180.485 132.345,179.894 132.567,179.146 132.653 C 178.208 132.761,177.875 132.919,177.688 133.344 C 177.507 133.758,177.136 133.944,176.195 134.094 C 175.261 134.243,174.921 134.412,174.853 134.763 C 174.723 135.439,176.989 135.114,178.216 134.280 C 178.787 133.893,179.474 133.666,180.072 133.666 C 180.735 133.666,181.221 133.481,181.682 133.054 C 182.093 132.673,182.779 132.383,183.503 132.285 C 184.141 132.198,184.859 132.074,185.098 132.008 C 185.392 131.927,185.629 132.101,185.833 132.548 C 186.173 133.294,185.089 134.492,183.289 135.362 C 182.807 135.595,182.162 136.038,181.855 136.347 C 181.488 136.716,180.998 136.908,180.422 136.908 C 179.807 136.908,179.392 137.087,179.022 137.513 C 178.732 137.846,178.168 138.254,177.767 138.420 C 176.515 138.938,174.366 141.373,174.693 141.902 C 174.975 142.359,175.574 142.144,175.820 141.497 C 175.955 141.141,176.284 140.793,176.550 140.723 C 176.816 140.653,177.201 140.341,177.405 140.030 C 177.610 139.718,178.078 139.387,178.447 139.295 C 178.815 139.202,179.521 138.852,180.015 138.516 C 180.517 138.175,181.275 137.905,181.731 137.905 C 182.252 137.905,182.706 137.718,182.982 137.389 C 183.221 137.105,183.791 136.713,184.249 136.519 C 184.707 136.325,185.417 135.884,185.827 135.540 C 186.237 135.195,186.747 134.913,186.962 134.913 C 187.176 134.913,187.497 134.716,187.674 134.476 C 187.937 134.121,188.056 134.099,188.321 134.360 C 188.586 134.622,188.544 134.706,188.088 134.825 C 187.673 134.934,187.531 135.155,187.531 135.695 C 187.531 136.226,187.364 136.496,186.908 136.704 C 186.565 136.860,186.284 137.130,186.284 137.305 C 186.284 137.479,185.948 137.862,185.536 138.155 C 185.125 138.448,184.788 138.851,184.788 139.051 C 184.788 139.250,184.505 139.521,184.160 139.653 C 183.815 139.784,183.425 140.174,183.293 140.519 C 183.162 140.865,182.881 141.147,182.668 141.147 C 182.456 141.147,182.174 141.430,182.043 141.775 C 181.912 142.120,181.522 142.510,181.177 142.642 C 180.787 142.790,180.549 143.075,180.549 143.392 C 180.549 143.707,180.310 143.993,179.925 144.140 C 179.487 144.306,179.302 144.564,179.302 145.006 C 179.302 145.512,179.179 145.636,178.678 145.636 C 178.166 145.636,178.055 145.757,178.055 146.315 L 178.055 146.994 178.443 146.440 C 178.657 146.135,178.952 145.885,179.100 145.885 C 179.248 145.885,179.630 145.633,179.950 145.324 C 180.269 145.016,180.879 144.483,181.306 144.140 C 182.038 143.551,184.917 140.926,185.374 140.429 C 185.828 139.937,186.686 139.102,187.282 138.573 C 187.625 138.269,188.271 137.692,188.717 137.291 C 189.348 136.725,189.596 136.629,189.828 136.861 C 190.213 137.246,190.109 138.952,189.679 139.278 C 189.498 139.415,189.261 139.808,189.153 140.151 C 188.892 140.981,188.200 141.896,186.445 143.733 C 185.641 144.574,184.872 145.573,184.735 145.953 C 184.598 146.333,184.285 146.752,184.039 146.883 C 183.564 147.137,183.083 149.834,183.416 150.373 C 183.699 150.832,184.289 150.146,184.289 149.358 C 184.289 148.581,184.757 147.382,185.061 147.382 C 185.167 147.382,185.319 147.173,185.400 146.919 C 185.481 146.664,186.554 145.417,187.786 144.148 C 189.017 142.878,190.025 141.686,190.025 141.499 C 190.025 141.312,190.292 140.984,190.618 140.770 C 190.944 140.557,191.404 139.875,191.641 139.256 C 192.143 137.941,192.545 137.941,192.856 139.256 C 193.039 140.030,192.990 140.313,192.579 140.869 C 192.305 141.240,191.998 142.043,191.897 142.654 C 191.708 143.795,191.359 144.657,190.987 144.902 C 190.628 145.138,190.341 147.254,190.580 147.898 C 190.850 148.625,191.115 148.274,191.370 146.851 C 191.459 146.353,191.810 145.646,192.150 145.279 C 192.514 144.887,192.768 144.314,192.768 143.886 C 192.768 143.422,193.027 142.894,193.484 142.427 C 193.878 142.024,194.273 141.302,194.363 140.823 C 194.826 138.354,196.010 139.793,196.010 142.824 C 196.010 144.718,195.729 145.952,195.172 146.509 C 194.967 146.715,194.665 147.528,194.503 148.317 C 194.340 149.105,194.052 150.054,193.862 150.424 C 193.416 151.293,193.390 153.450,193.828 153.304 C 193.999 153.247,194.172 152.985,194.212 152.722 C 194.397 151.496,194.549 151.122,194.863 151.122 C 195.236 151.122,195.502 150.379,195.508 149.326 C 195.512 148.576,195.986 147.382,196.280 147.382 C 196.606 147.382,196.957 145.844,197.114 143.730 C 197.511 138.364,198.746 139.411,199.140 145.449 L 199.298 147.880 199.992 147.880 C 200.845 147.880,200.998 147.312,200.998 144.125 C 200.998 139.664,202.598 138.881,203.184 143.056 C 203.324 144.054,203.601 145.033,203.799 145.231 C 204.062 145.494,204.203 146.537,204.318 149.068 C 204.493 152.914,204.589 153.367,205.232 153.367 C 205.734 153.367,205.983 154.258,205.989 156.079 C 205.994 157.562,206.380 158.268,206.612 157.219 C 206.702 156.815,206.820 156.340,206.874 156.163 C 207.010 155.724,206.488 153.367,206.254 153.367 C 205.714 153.367,205.486 151.841,205.486 148.231 C 205.486 144.587,205.451 144.299,204.863 143.195 C 204.159 141.873,204.058 140.480,204.613 139.761 C 205.113 139.114,205.736 139.831,205.736 141.053 C 205.736 141.658,205.915 141.989,206.451 142.371 C 206.956 142.730,207.213 143.172,207.325 143.876 C 207.413 144.423,207.700 145.072,207.963 145.317 C 208.225 145.562,208.575 146.295,208.739 146.946 C 209.033 148.114,209.290 148.384,209.612 147.863 C 209.851 147.476,209.502 145.448,209.133 145.078 C 208.707 144.651,208.229 143.221,208.229 142.376 C 208.229 141.995,207.944 141.345,207.595 140.931 C 206.426 139.541,207.297 137.839,208.573 139.021 C 208.947 139.367,209.338 139.651,209.442 139.651 C 209.687 139.651,211.721 142.719,211.721 143.088 C 211.721 143.243,212.001 143.783,212.344 144.288 C 212.687 144.793,212.968 145.395,212.968 145.626 C 212.968 145.856,213.302 146.420,213.712 146.878 C 214.121 147.337,214.518 147.890,214.594 148.108 C 214.754 148.568,216.355 149.647,216.565 149.436 C 216.929 149.073,216.663 148.377,216.106 148.238 C 215.765 148.152,215.444 147.845,215.364 147.528 C 215.287 147.220,214.948 146.671,214.610 146.307 C 214.242 145.909,213.929 145.188,213.825 144.500 C 213.730 143.867,213.389 143.042,213.061 142.652 C 212.735 142.265,212.469 141.785,212.469 141.585 C 212.469 141.385,212.134 140.728,211.725 140.125 C 211.316 139.521,210.980 138.891,210.977 138.724 C 210.975 138.558,210.741 138.298,210.459 138.147 C 209.912 137.854,209.859 136.783,210.391 136.783 C 210.756 136.783,212.918 138.653,215.652 141.334 C 216.807 142.466,217.824 143.392,217.913 143.392 C 218.002 143.392,218.356 143.664,218.701 143.996 C 220.216 145.460,220.741 145.885,221.034 145.885 C 221.206 145.885,221.481 146.020,221.646 146.185 C 221.879 146.417,221.945 146.390,221.945 146.060 C 221.945 145.774,221.742 145.636,221.322 145.636 C 220.801 145.636,220.698 145.518,220.698 144.917 C 220.698 144.409,220.553 144.160,220.203 144.068 C 219.930 143.997,219.600 143.657,219.469 143.312 C 219.338 142.968,219.000 142.613,218.718 142.523 C 218.435 142.434,218.204 142.258,218.204 142.132 C 218.204 142.006,216.914 140.607,215.337 139.022 C 213.235 136.911,212.469 135.977,212.469 135.527 C 212.469 135.189,212.357 134.913,212.219 134.913 C 212.082 134.913,211.970 134.787,211.970 134.633 C 211.970 134.443,212.071 134.433,212.282 134.600 C 212.453 134.736,213.135 134.905,213.797 134.976 C 214.637 135.066,215.206 135.302,215.681 135.757 C 216.055 136.116,216.490 136.409,216.648 136.409 C 217.157 136.409,218.204 136.980,218.208 137.259 C 218.210 137.409,218.773 137.980,219.460 138.529 C 221.139 139.870,221.387 140.098,221.486 140.391 C 221.628 140.810,224.065 140.837,224.065 140.420 C 224.065 140.225,223.728 139.957,223.317 139.822 C 222.543 139.569,221.160 138.503,219.166 136.622 C 216.889 134.474,216.473 134.156,215.538 133.851 C 214.790 133.607,214.572 133.399,214.511 132.871 C 214.458 132.408,214.226 132.125,213.763 131.956 L 213.092 131.710 213.853 131.691 C 214.271 131.680,214.729 131.786,214.869 131.927 C 215.010 132.068,215.734 132.253,216.478 132.339 C 217.438 132.451,217.990 132.666,218.380 133.081 C 218.752 133.477,219.209 133.666,219.797 133.666 C 220.792 133.666,221.827 134.011,222.326 134.509 C 222.715 134.898,224.800 135.277,225.198 135.030 C 225.679 134.733,224.967 134.226,223.828 134.055 C 223.055 133.939,222.617 133.712,222.334 133.280 C 222.041 132.833,221.710 132.668,221.100 132.668 C 220.642 132.668,219.994 132.454,219.660 132.191 C 219.327 131.929,218.412 131.527,217.627 131.299 C 216.386 130.939,216.135 130.757,215.700 129.904 L 215.199 128.923 215.771 128.662 C 216.200 128.467,216.915 128.529,218.642 128.914 C 219.907 129.196,221.264 129.426,221.657 129.426 C 222.064 129.426,222.647 129.682,223.015 130.023 C 223.830 130.778,226.164 131.049,229.685 130.797 C 233.889 130.496,232.922 129.997,227.876 129.863 C 225.049 129.788,224.643 129.721,224.136 129.246 C 223.822 128.953,223.005 128.578,222.319 128.412 C 221.633 128.245,220.888 127.951,220.663 127.756 C 220.369 127.502,216.399 126.483,215.524 126.437 C 215.489 126.435,215.461 126.333,215.461 126.209 C 215.461 125.532,217.318 125.344,225.561 125.184 C 230.224 125.093,234.075 125.001,234.117 124.978 C 234.760 124.640,232.443 124.468,225.181 124.314 C 217.426 124.150,216.380 124.081,215.905 123.696 L 215.370 123.263 216.102 122.814 C 216.504 122.566,217.264 122.079,217.790 121.731 C 218.686 121.139,219.003 121.090,222.733 120.961 C 226.071 120.845,226.755 120.757,226.947 120.414 C 227.073 120.190,227.486 119.933,227.865 119.845 C 230.042 119.336,230.427 118.703,228.559 118.703 C 227.262 118.703,226.683 118.894,226.683 119.321 C 226.683 119.789,225.250 119.944,220.903 119.947 C 217.763 119.950,216.920 120.024,216.619 120.324 C 216.212 120.731,214.713 120.843,214.713 120.466 C 214.713 120.338,214.926 120.165,215.187 120.083 C 215.448 120.000,215.729 119.661,215.813 119.329 C 215.952 118.772,217.107 118.211,218.123 118.206 C 218.284 118.205,218.766 117.910,219.194 117.549 C 219.690 117.133,220.385 116.847,221.103 116.766 C 221.976 116.668,222.281 116.513,222.444 116.085 C 222.609 115.651,222.927 115.495,223.911 115.364 C 225.252 115.186,225.621 114.927,225.121 114.513 C 224.707 114.169,222.467 114.590,222.098 115.081 C 221.945 115.284,221.080 115.604,220.176 115.791 C 219.177 115.998,218.320 116.344,217.994 116.670 C 217.698 116.965,217.204 117.208,216.895 117.210 C 216.587 117.211,215.924 117.280,215.423 117.363 C 213.691 117.650,213.609 116.651,215.246 115.185 C 215.981 114.526,216.708 113.982,216.861 113.976 C 217.014 113.970,217.562 113.628,218.080 113.217 C 218.701 112.723,219.304 112.469,219.854 112.469 C 220.453 112.469,220.795 112.304,221.070 111.884 C 221.281 111.562,221.901 111.165,222.447 111.001 C 222.994 110.837,223.441 110.547,223.441 110.356 C 223.441 110.165,223.754 109.786,224.136 109.514 C 225.121 108.813,225.657 107.772,225.184 107.479 C 224.773 107.225,224.190 107.614,224.190 108.141 C 224.190 108.334,223.906 108.599,223.560 108.731 C 223.213 108.862,222.866 109.135,222.789 109.337 C 222.619 109.781,219.425 111.364,218.204 111.610 C 217.724 111.707,217.085 112.052,216.782 112.377 C 216.480 112.702,216.075 112.968,215.882 112.968 C 215.688 112.968,215.106 113.304,214.589 113.716 C 214.071 114.127,213.382 114.464,213.058 114.464 C 212.701 114.464,212.469 114.611,212.469 114.838 C 212.469 115.266,211.832 115.344,211.586 114.946 C 211.495 114.799,211.657 114.618,211.945 114.543 C 212.287 114.453,212.469 114.205,212.469 113.828 C 212.469 113.471,212.755 113.047,213.217 112.718 C 213.628 112.425,213.965 112.043,213.965 111.868 C 213.965 111.694,214.246 111.424,214.589 111.267 C 214.931 111.111,215.212 110.852,215.212 110.691 C 215.212 110.530,215.745 109.911,216.397 109.315 C 217.048 108.719,217.693 108.110,217.830 107.962 C 217.968 107.814,218.371 107.392,218.728 107.026 C 219.084 106.659,219.450 106.152,219.540 105.899 C 219.630 105.646,219.921 105.382,220.187 105.313 C 220.482 105.235,220.700 104.929,220.746 104.526 C 220.800 104.060,220.989 103.842,221.384 103.786 C 221.693 103.742,221.945 103.590,221.945 103.447 C 221.945 103.305,221.768 103.257,221.551 103.340 C 221.334 103.423,220.997 103.491,220.803 103.491 C 220.608 103.491,220.449 103.657,220.449 103.859 C 220.449 104.061,220.140 104.389,219.763 104.589 C 219.386 104.788,218.460 105.526,217.706 106.229 C 216.357 107.487,212.363 111.256,211.305 112.270 C 210.520 113.023,209.975 112.705,209.975 111.494 C 209.975 110.949,210.091 110.432,210.232 110.344 C 210.374 110.257,210.723 109.689,211.008 109.083 C 211.293 108.476,211.619 107.980,211.731 107.980 C 211.844 107.980,212.000 107.784,212.078 107.544 C 212.156 107.304,212.949 106.340,213.841 105.403 C 214.732 104.465,215.461 103.553,215.461 103.376 C 215.461 103.198,215.683 102.899,215.954 102.711 C 216.426 102.383,217.075 99.657,216.792 99.190 C 216.448 98.621,216.009 99.116,215.860 100.239 C 215.770 100.919,215.578 101.549,215.434 101.638 C 215.290 101.727,214.962 102.145,214.705 102.567 C 214.449 102.989,213.336 104.254,212.232 105.379 C 211.128 106.504,210.224 107.545,210.224 107.694 C 210.224 107.842,209.832 108.356,209.352 108.836 C 208.872 109.316,208.479 109.923,208.479 110.186 C 208.479 110.779,207.796 111.387,207.483 111.074 C 207.010 110.601,207.122 109.071,207.682 108.359 C 207.983 107.976,208.229 107.359,208.229 106.986 C 208.229 106.100,208.728 104.679,209.149 104.364 C 209.572 104.048,209.715 101.465,209.317 101.324 C 209.151 101.266,208.909 101.738,208.736 102.462 C 208.573 103.142,208.228 103.890,207.971 104.123 C 207.714 104.356,207.430 105.033,207.341 105.628 C 207.233 106.349,206.995 106.831,206.629 107.071 C 206.326 107.269,205.945 107.878,205.781 108.424 C 204.992 111.058,204.106 109.913,204.133 106.294 C 204.148 104.279,204.225 103.883,204.733 103.195 C 205.054 102.762,205.470 101.669,205.659 100.767 C 205.847 99.865,206.110 99.090,206.243 99.044 C 206.375 98.998,206.484 98.234,206.484 97.346 C 206.484 95.564,206.092 95.376,205.828 97.031 C 205.739 97.587,205.458 98.171,205.189 98.360 C 204.856 98.593,204.641 99.173,204.489 100.251 C 204.341 101.293,204.099 101.964,203.755 102.284 C 203.473 102.547,203.242 102.866,203.242 102.992 C 203.242 103.866,202.643 108.459,202.470 108.915 C 201.932 110.332,201.348 108.951,201.125 105.736 C 200.841 101.632,200.806 101.496,200.021 101.496 C 199.271 101.496,199.002 102.857,199.002 106.662 C 199.002 110.108,197.302 109.781,196.888 106.256 C 196.801 105.507,196.514 104.631,196.245 104.290 C 195.842 103.777,195.757 103.250,195.739 101.151 C 195.706 97.339,195.500 96.151,194.858 96.059 C 194.310 95.981,194.015 94.864,194.015 92.873 C 194.015 91.969,193.656 91.545,193.418 92.166 M206.122 92.000 C 206.029 92.151,206.032 92.523,206.129 92.829 L 206.305 93.383 206.527 92.784 C 206.762 92.149,206.429 91.504,206.122 92.000 M187.781 95.871 C 187.781 97.002,188.162 97.602,188.433 96.897 C 188.633 96.375,188.320 94.763,188.019 94.763 C 187.888 94.763,187.781 95.261,187.781 95.871 M211.864 95.059 C 211.541 96.095,211.500 96.746,211.748 96.899 C 212.114 97.126,212.460 96.552,212.465 95.713 C 212.469 94.993,212.033 94.518,211.864 95.059 M217.293 97.891 C 217.212 98.103,217.208 98.338,217.284 98.415 C 217.503 98.633,217.955 98.263,217.955 97.866 C 217.955 97.387,217.479 97.405,217.293 97.891 M189.185 98.586 C 189.001 99.319,189.247 100.748,189.557 100.748 C 189.773 100.748,189.881 99.850,189.783 98.878 C 189.703 98.083,189.354 97.912,189.185 98.586 M210.381 98.569 C 210.156 99.409,210.195 100.748,210.445 100.748 C 210.904 100.748,211.179 98.411,210.752 98.147 C 210.630 98.072,210.463 98.262,210.381 98.569 M182.200 98.890 C 181.991 99.432,182.216 99.751,182.808 99.751 C 183.419 99.751,183.424 99.449,182.824 98.906 C 182.394 98.517,182.343 98.515,182.200 98.890 M172.212 106.206 C 172.050 106.468,172.672 107.045,172.886 106.831 C 173.079 106.639,172.824 105.985,172.557 105.985 C 172.442 105.985,172.287 106.085,172.212 106.206 M225.948 106.344 C 225.688 106.657,225.692 106.749,225.969 106.846 C 226.451 107.015,227.946 106.657,228.005 106.359 C 228.090 105.932,226.301 105.919,225.948 106.344 M173.460 107.700 C 173.259 108.026,173.484 108.138,174.774 108.351 C 175.743 108.512,175.848 108.482,175.769 108.068 C 175.672 107.554,173.741 107.247,173.460 107.700 M168.867 111.941 C 168.619 112.098,168.704 112.197,169.190 112.319 C 169.913 112.500,170.414 112.317,170.189 111.953 C 170.011 111.664,169.313 111.658,168.867 111.941 M229.811 111.953 C 229.732 112.081,229.788 112.259,229.935 112.350 C 230.315 112.585,231.472 112.254,231.292 111.963 C 231.101 111.654,230.000 111.647,229.811 111.953 M172.077 113.208 C 171.570 113.527,171.855 113.734,173.014 113.890 C 173.852 114.002,174.640 113.670,174.277 113.358 C 174.002 113.122,172.387 113.012,172.077 113.208 M226.559 113.187 C 225.541 113.404,225.614 113.826,226.683 113.905 C 227.779 113.987,228.497 113.593,227.930 113.221 C 227.724 113.086,227.500 112.987,227.431 113.001 C 227.363 113.015,226.970 113.099,226.559 113.187 M171.944 135.912 C 171.859 136.050,171.965 136.231,172.181 136.313 C 172.702 136.514,174.314 136.200,174.314 135.899 C 174.314 135.580,172.142 135.592,171.944 135.912 M225.818 135.898 C 225.624 136.212,227.239 136.504,227.941 136.281 C 228.374 136.144,228.419 136.057,228.150 135.887 C 227.687 135.593,226.001 135.601,225.818 135.898 M169.264 137.097 C 168.547 137.256,168.770 137.656,169.576 137.656 C 169.988 137.656,170.324 137.556,170.324 137.433 C 170.324 137.139,169.809 136.976,169.264 137.097 M229.890 137.188 C 229.604 137.372,229.604 137.441,229.890 137.625 C 230.263 137.866,231.172 137.711,231.172 137.406 C 231.172 137.102,230.263 136.947,229.890 137.188 M224.307 141.159 C 224.038 141.595,224.500 141.893,225.548 141.960 C 226.694 142.032,227.055 141.490,226.015 141.258 C 225.628 141.171,225.125 141.051,224.896 140.989 C 224.668 140.928,224.403 141.004,224.307 141.159 M173.441 142.518 C 173.304 142.563,172.867 142.672,172.470 142.760 C 171.431 142.991,172.014 143.445,173.222 143.346 C 173.853 143.294,174.190 143.144,174.190 142.914 C 174.190 142.546,173.870 142.377,173.441 142.518 M227.182 143.017 C 227.182 143.223,227.350 143.392,227.556 143.392 C 227.762 143.392,227.930 143.223,227.930 143.017 C 227.930 142.812,227.762 142.643,227.556 142.643 C 227.350 142.643,227.182 142.812,227.182 143.017 M189.461 148.799 C 189.173 149.308,189.033 150.432,189.182 151.029 C 189.417 151.962,189.838 151.162,189.820 149.819 C 189.806 148.812,189.671 148.428,189.461 148.799 M210.242 149.688 C 210.252 150.271,210.351 150.973,210.463 151.247 C 210.768 151.996,211.079 150.643,210.864 149.500 C 210.636 148.284,210.221 148.410,210.242 149.688 M216.883 149.784 C 216.686 149.981,217.407 150.873,217.762 150.873 C 217.887 150.873,217.954 150.621,217.910 150.314 C 217.831 149.761,217.221 149.446,216.883 149.784 M182.131 151.258 C 181.942 151.750,182.118 151.922,182.617 151.731 C 182.834 151.648,182.950 151.421,182.875 151.226 C 182.696 150.760,182.316 150.776,182.131 151.258 M187.951 152.531 C 187.690 152.793,187.749 154.613,188.019 154.613 C 188.352 154.613,188.642 152.881,188.356 152.596 C 188.227 152.466,188.045 152.437,187.951 152.531 M211.670 152.646 C 211.485 153.199,211.781 154.635,212.061 154.542 C 212.424 154.421,212.554 153.742,212.361 152.973 C 212.204 152.344,211.830 152.167,211.670 152.646 M193.516 156.997 C 193.516 157.359,193.624 157.569,193.766 157.481 C 193.903 157.397,194.015 157.109,194.015 156.843 C 194.015 156.577,193.903 156.359,193.766 156.359 C 193.628 156.359,193.516 156.646,193.516 156.997 " stroke="none" fill="#cf8910" fill-rule="evenodd"></path><path id="path3" d="M193.086 90.951 C 192.337 92.097,192.480 95.342,193.353 97.025 C 194.148 98.556,194.455 101.259,194.154 104.070 C 193.937 106.089,193.658 106.175,193.137 104.385 C 192.922 103.642,192.582 102.899,192.382 102.733 C 192.183 102.568,192.020 102.290,192.020 102.114 C 192.020 101.939,191.694 101.177,191.296 100.421 C 190.898 99.664,190.498 98.704,190.406 98.287 C 190.315 97.871,190.034 97.268,189.782 96.948 C 189.531 96.628,189.199 95.900,189.046 95.330 C 188.662 93.905,186.831 92.273,186.351 92.929 C 185.925 93.512,185.953 94.147,186.424 94.618 C 186.638 94.832,186.880 95.429,186.960 95.945 C 187.041 96.461,187.427 97.488,187.818 98.227 C 188.209 98.967,188.529 99.854,188.529 100.200 C 188.529 100.546,188.800 101.291,189.131 101.856 C 189.462 102.421,189.814 103.328,189.913 103.873 C 190.013 104.417,190.318 105.182,190.591 105.571 C 191.147 106.363,191.466 108.329,191.078 108.569 C 190.941 108.654,190.628 108.416,190.384 108.040 C 190.140 107.664,189.735 107.210,189.484 107.031 C 189.233 106.852,189.027 106.485,189.027 106.216 C 189.027 105.946,188.691 105.095,188.279 104.324 C 187.868 103.553,187.531 102.797,187.531 102.643 C 187.531 102.490,186.297 101.096,184.788 99.546 C 183.279 97.996,182.045 96.627,182.045 96.503 C 182.045 96.053,181.040 95.706,180.657 96.023 C 179.790 96.743,180.921 99.272,183.146 101.588 C 183.912 102.385,184.539 103.182,184.539 103.358 C 184.539 103.535,184.708 103.820,184.915 103.992 C 185.122 104.164,185.472 104.935,185.692 105.706 C 185.913 106.477,186.247 107.283,186.435 107.498 C 186.907 108.036,187.178 109.476,186.808 109.476 C 186.650 109.476,186.415 109.196,186.284 108.853 C 186.138 108.468,185.852 108.229,185.536 108.229 C 185.220 108.229,184.934 107.991,184.788 107.606 C 184.658 107.263,184.440 106.983,184.305 106.983 C 184.169 106.983,183.387 106.337,182.566 105.549 C 181.745 104.760,180.928 103.978,180.749 103.810 C 180.570 103.642,180.278 103.362,180.100 103.186 C 177.236 100.372,176.768 100.000,176.090 100.000 C 175.023 100.000,174.526 100.704,175.253 101.187 C 175.560 101.390,175.810 101.691,175.810 101.855 C 175.810 102.019,176.175 102.497,176.621 102.918 C 177.067 103.340,177.569 103.837,177.736 104.024 C 177.904 104.211,178.156 104.476,178.296 104.613 C 178.436 104.751,179.533 105.918,180.734 107.208 C 181.935 108.497,183.507 110.153,184.227 110.886 C 184.947 111.619,185.536 112.386,185.536 112.589 C 185.536 112.792,185.817 113.028,186.160 113.115 C 187.018 113.330,186.944 113.716,186.044 113.716 C 185.575 113.716,185.212 113.544,185.053 113.246 C 184.914 112.987,184.502 112.701,184.137 112.609 C 183.772 112.517,182.942 111.915,182.293 111.271 C 180.697 109.687,179.236 108.486,178.900 108.482 C 178.748 108.480,178.019 108.156,177.279 107.762 C 176.540 107.368,175.456 106.965,174.870 106.867 C 174.038 106.727,173.722 106.528,173.430 105.962 C 172.737 104.622,171.126 105.309,171.511 106.780 C 171.678 107.417,172.819 108.496,173.736 108.884 C 174.172 109.068,174.598 109.330,174.682 109.466 C 174.766 109.601,175.306 109.837,175.883 109.989 C 176.460 110.141,177.157 110.476,177.431 110.732 C 177.706 110.988,178.594 111.849,179.406 112.644 C 180.218 113.439,181.167 114.281,181.515 114.515 L 182.148 114.940 181.538 115.166 C 180.853 115.420,179.691 115.162,179.080 114.622 C 178.859 114.426,178.040 114.136,177.260 113.976 C 176.479 113.817,175.562 113.468,175.222 113.200 C 174.881 112.932,174.032 112.604,173.334 112.472 C 172.637 112.340,171.758 112.016,171.382 111.752 C 170.374 111.044,168.631 110.848,168.046 111.377 C 167.186 112.155,167.678 112.738,169.493 113.093 C 169.927 113.178,170.342 113.403,170.415 113.593 C 170.488 113.783,171.115 114.107,171.809 114.313 C 172.503 114.519,173.323 114.864,173.630 115.081 C 173.938 115.297,174.635 115.594,175.180 115.741 C 175.725 115.889,176.472 116.263,176.840 116.573 C 177.209 116.882,177.950 117.206,178.488 117.292 C 179.027 117.378,179.666 117.669,179.909 117.937 C 180.152 118.206,180.704 118.496,181.136 118.583 C 182.753 118.908,182.847 118.962,182.505 119.373 C 182.006 119.975,179.043 119.723,178.058 118.994 C 176.964 118.186,173.563 117.665,170.723 117.871 C 168.911 118.003,168.453 117.964,168.229 117.660 C 167.686 116.924,166.953 116.702,166.383 117.101 C 165.733 117.556,165.875 118.033,167.005 119.189 L 167.845 120.048 170.893 120.154 C 173.405 120.242,174.137 120.358,175.062 120.818 C 175.680 121.124,176.521 121.455,176.933 121.553 C 177.344 121.651,177.905 122.004,178.180 122.336 C 178.534 122.765,179.076 123.005,180.050 123.162 C 181.371 123.375,181.330 123.385,178.928 123.439 C 164.840 123.757,163.911 123.875,165.220 125.180 C 165.680 125.639,166.222 125.680,173.878 125.842 C 178.370 125.937,182.045 126.109,182.045 126.224 C 182.045 126.340,181.886 126.434,181.692 126.434 C 181.497 126.434,181.117 126.737,180.847 127.108 C 180.361 127.776,180.322 127.783,176.594 127.929 C 173.333 128.056,172.739 128.144,172.139 128.587 C 171.758 128.868,170.998 129.245,170.449 129.423 C 169.900 129.602,169.194 129.949,168.878 130.194 C 168.408 130.560,168.169 130.592,167.542 130.373 C 166.694 130.077,166.345 130.354,166.338 131.329 C 166.328 132.682,168.968 132.972,171.197 131.861 C 173.782 130.574,178.706 130.270,179.496 131.350 C 179.793 131.755,179.698 131.832,178.451 132.203 C 177.697 132.427,176.898 132.792,176.677 133.013 C 176.455 133.235,175.974 133.481,175.606 133.561 C 174.532 133.795,173.566 134.208,173.566 134.435 C 173.566 134.550,172.986 134.816,172.278 135.027 C 171.569 135.237,170.772 135.606,170.506 135.847 C 170.240 136.087,169.568 136.396,169.013 136.534 C 167.096 137.007,167.286 138.377,169.272 138.396 C 170.201 138.405,171.820 137.801,171.820 137.446 C 171.820 137.316,172.498 137.091,173.325 136.945 C 174.153 136.800,175.155 136.449,175.552 136.166 C 175.948 135.884,176.783 135.557,177.406 135.441 C 178.029 135.325,178.840 135.032,179.208 134.790 C 179.577 134.549,180.543 134.197,181.355 134.007 C 182.167 133.818,183.000 133.495,183.204 133.290 C 183.616 132.878,184.188 132.801,184.391 133.131 C 184.464 133.248,184.246 133.470,183.907 133.624 C 183.569 133.778,183.292 134.078,183.292 134.289 C 183.292 134.501,182.983 134.808,182.606 134.971 C 182.229 135.134,181.622 135.508,181.258 135.803 C 180.893 136.097,180.141 136.410,179.586 136.499 C 179.031 136.588,178.275 136.941,177.905 137.283 C 177.536 137.625,177.143 137.905,177.031 137.905 C 176.849 137.905,175.902 138.836,173.540 141.334 C 173.119 141.780,172.528 142.145,172.228 142.145 C 171.615 142.145,170.574 142.790,170.574 143.169 C 170.574 143.653,172.375 144.194,173.428 144.027 C 174.381 143.876,174.650 143.702,175.973 142.381 C 177.892 140.464,178.347 140.126,179.700 139.621 C 180.441 139.343,181.047 139.021,181.047 138.905 C 181.047 138.723,183.133 138.155,183.803 138.155 C 184.409 138.155,183.885 138.985,182.107 140.845 C 181.044 141.956,180.037 143.012,179.870 143.191 C 179.702 143.370,179.422 143.664,179.246 143.844 C 179.071 144.024,178.224 144.922,177.364 145.839 C 176.504 146.756,175.576 147.744,175.302 148.035 C 174.092 149.321,176.294 150.007,177.547 148.734 C 179.594 146.654,182.596 143.890,182.808 143.890 C 182.944 143.890,183.161 143.610,183.292 143.267 C 183.422 142.924,183.644 142.643,183.784 142.643 C 183.925 142.643,184.638 142.040,185.370 141.303 C 186.101 140.566,186.943 139.832,187.240 139.673 C 187.537 139.514,187.781 139.220,187.781 139.019 C 187.781 138.818,187.949 138.653,188.155 138.653 C 189.407 138.653,187.448 142.083,185.279 143.686 C 184.872 143.987,184.539 144.342,184.539 144.475 C 184.539 144.607,184.244 145.103,183.883 145.576 C 183.522 146.049,183.125 146.888,183.001 147.442 C 182.700 148.781,181.312 151.631,180.879 151.797 C 179.912 152.168,180.013 153.865,181.003 153.865 C 181.845 153.865,184.493 151.025,184.805 149.787 C 184.961 149.167,185.302 148.467,185.562 148.231 C 185.822 147.996,186.035 147.674,186.035 147.515 C 186.035 146.795,189.538 143.546,189.912 143.920 C 190.345 144.353,189.901 146.450,189.067 147.908 C 188.801 148.373,188.507 149.189,188.414 149.722 C 188.320 150.255,188.031 150.985,187.771 151.343 C 187.512 151.702,187.181 152.535,187.036 153.195 C 186.892 153.856,186.592 154.674,186.369 155.014 C 185.830 155.836,186.269 157.022,186.969 156.635 C 188.014 156.057,188.962 154.913,189.128 154.030 C 189.224 153.519,189.577 152.697,189.913 152.202 C 190.249 151.707,190.524 151.052,190.524 150.747 C 190.524 150.442,190.732 149.924,190.987 149.597 C 191.242 149.270,191.602 148.554,191.787 148.005 C 191.972 147.456,192.276 146.822,192.463 146.595 C 192.650 146.368,192.962 145.652,193.157 145.004 C 193.352 144.357,193.794 143.544,194.139 143.199 C 194.485 142.854,194.869 142.222,194.992 141.797 C 195.187 141.127,195.220 141.234,195.239 142.590 C 195.253 143.523,195.123 144.381,194.919 144.710 C 194.730 145.013,194.441 145.823,194.277 146.509 C 194.112 147.195,193.738 148.144,193.444 148.619 C 192.954 149.413,192.911 149.833,192.902 153.856 L 192.893 158.229 193.499 158.229 C 194.712 158.229,195.547 156.217,195.777 152.743 C 195.972 149.788,196.080 149.344,197.024 147.631 C 197.289 147.151,197.514 146.421,197.523 146.010 C 197.550 144.915,197.862 144.205,198.128 144.636 C 198.372 145.031,198.721 150.379,198.740 154.018 C 198.763 158.392,198.887 158.853,200.042 158.853 C 201.286 158.853,201.183 159.455,201.463 150.623 C 201.690 143.461,201.942 141.017,202.324 142.273 C 202.668 143.404,202.989 146.137,202.991 147.955 C 202.992 149.177,203.129 150.164,203.360 150.610 C 203.562 151.001,203.841 151.831,203.981 152.454 C 204.121 153.077,204.517 154.002,204.861 154.509 C 205.313 155.176,205.486 155.762,205.486 156.627 C 205.486 158.702,206.182 159.692,206.972 158.741 C 207.835 157.701,207.552 153.161,206.555 152.062 C 206.178 151.646,206.097 150.999,206.030 147.865 C 205.941 143.781,206.172 142.661,206.735 144.437 C 206.923 145.028,207.392 146.116,207.777 146.856 C 208.163 147.595,208.479 148.337,208.479 148.505 C 208.479 148.673,208.682 149.078,208.930 149.405 C 209.179 149.732,209.528 150.503,209.706 151.118 C 209.884 151.732,210.242 152.505,210.501 152.834 C 210.760 153.164,210.973 153.718,210.973 154.066 C 210.973 154.491,211.343 155.054,212.099 155.778 C 213.394 157.019,213.543 157.062,213.890 156.297 C 214.144 155.735,213.856 154.613,213.457 154.613 C 213.356 154.613,213.196 154.080,213.102 153.429 C 213.008 152.777,212.669 151.852,212.349 151.372 C 212.029 150.892,211.686 149.994,211.589 149.377 C 211.491 148.759,211.210 147.970,210.964 147.623 C 210.719 147.276,210.348 146.340,210.139 145.543 C 209.931 144.746,209.594 143.907,209.390 143.680 C 208.891 143.123,208.621 141.543,208.931 140.990 C 209.154 140.592,209.240 140.642,209.714 141.446 C 210.008 141.943,210.389 142.404,210.563 142.470 C 210.736 142.537,211.023 143.080,211.199 143.677 C 211.376 144.274,211.664 144.931,211.838 145.137 C 212.013 145.343,212.288 145.922,212.449 146.423 C 212.639 147.015,213.592 148.207,215.161 149.815 C 216.492 151.178,217.889 152.661,218.266 153.110 C 218.836 153.790,219.015 153.875,219.326 153.616 C 220.262 152.840,219.256 150.365,217.030 147.964 C 215.535 146.352,214.575 144.782,214.364 143.604 C 214.275 143.103,213.987 142.422,213.725 142.089 C 213.174 141.387,212.963 140.123,213.374 139.978 C 213.529 139.923,213.728 140.164,213.815 140.513 C 213.920 140.928,214.147 141.147,214.474 141.147 C 214.765 141.147,215.092 141.408,215.257 141.771 C 215.414 142.113,215.631 142.394,215.741 142.394 C 215.851 142.394,216.623 143.067,217.456 143.890 C 218.290 144.713,219.061 145.387,219.171 145.387 C 219.281 145.387,219.499 145.667,219.655 146.010 C 219.812 146.353,220.076 146.633,220.242 146.633 C 220.409 146.633,221.133 147.251,221.852 148.005 C 222.964 149.171,223.294 149.377,224.056 149.377 C 225.093 149.377,225.458 148.835,224.863 148.180 C 224.651 147.947,223.767 146.998,222.900 146.071 C 222.032 145.145,220.424 143.416,219.327 142.228 C 218.229 141.041,216.686 139.411,215.898 138.606 C 215.109 137.801,214.464 136.979,214.464 136.780 C 214.464 136.581,214.184 136.348,213.842 136.262 C 213.500 136.177,213.283 136.006,213.359 135.883 C 213.558 135.561,214.706 135.903,215.248 136.445 C 215.503 136.700,215.871 136.908,216.067 136.908 C 216.263 136.908,216.964 137.434,217.626 138.077 C 219.316 139.723,220.887 140.903,221.793 141.212 C 222.220 141.358,222.833 141.681,223.157 141.930 C 223.481 142.180,224.299 142.458,224.976 142.547 C 225.986 142.681,226.270 142.834,226.564 143.403 C 227.144 144.524,228.311 144.571,228.584 143.485 C 228.800 142.624,227.389 140.682,226.530 140.657 C 226.377 140.652,225.982 140.436,225.653 140.177 C 225.324 139.918,224.625 139.588,224.100 139.443 C 223.574 139.298,222.903 138.946,222.607 138.661 C 219.470 135.636,218.733 134.964,218.448 134.869 C 217.904 134.688,218.429 134.165,219.154 134.166 C 219.523 134.166,220.197 134.393,220.652 134.670 C 221.106 134.947,222.057 135.298,222.763 135.450 C 223.470 135.601,224.445 135.979,224.929 136.289 C 225.414 136.599,226.295 136.923,226.888 137.010 C 227.481 137.098,228.283 137.403,228.670 137.689 C 229.531 138.326,231.509 138.599,232.043 138.156 C 232.872 137.469,232.057 136.409,230.700 136.409 C 230.453 136.409,229.991 136.184,229.673 135.908 C 229.356 135.633,228.637 135.271,228.077 135.105 C 227.516 134.939,226.677 134.548,226.212 134.235 C 225.747 133.922,225.111 133.666,224.797 133.666 C 224.484 133.666,223.900 133.390,223.499 133.052 C 223.097 132.715,222.295 132.332,221.716 132.202 C 221.137 132.072,220.455 131.777,220.201 131.548 C 219.948 131.318,219.227 131.000,218.600 130.840 C 217.211 130.485,217.059 130.152,218.155 129.868 C 219.211 129.595,221.477 130.007,222.380 130.637 C 223.385 131.340,226.520 131.774,229.152 131.575 C 231.301 131.413,231.390 131.427,232.156 132.072 C 233.808 133.462,234.779 132.108,233.273 130.512 C 232.322 129.503,231.139 129.236,227.431 129.191 C 226.488 129.180,225.677 128.981,224.833 128.553 C 224.158 128.210,223.417 127.930,223.187 127.930 C 222.956 127.930,222.433 127.611,222.025 127.221 C 221.580 126.796,220.841 126.427,220.180 126.301 C 219.402 126.153,221.352 126.026,226.808 125.869 C 233.286 125.684,234.609 125.584,234.975 125.254 C 236.047 124.287,234.668 123.691,231.361 123.691 C 225.746 123.691,217.342 123.353,218.080 123.157 C 218.491 123.047,219.067 122.661,219.359 122.298 C 219.880 121.651,219.967 121.634,223.783 121.463 C 227.235 121.308,227.740 121.230,228.239 120.771 C 228.549 120.486,229.162 120.177,229.602 120.084 C 230.041 119.992,230.683 119.694,231.028 119.422 C 231.453 119.087,231.949 118.953,232.572 119.003 C 233.720 119.096,234.349 117.963,233.505 117.324 C 232.796 116.787,230.275 116.855,229.331 117.437 C 227.660 118.468,222.721 119.081,221.089 118.460 C 220.134 118.097,220.286 117.508,221.384 117.313 C 221.898 117.221,222.815 116.823,223.422 116.428 C 224.028 116.034,224.771 115.711,225.071 115.711 C 225.372 115.711,225.908 115.483,226.263 115.204 C 226.617 114.925,227.423 114.542,228.054 114.352 C 228.684 114.162,229.378 113.857,229.595 113.674 C 229.811 113.491,230.508 113.173,231.142 112.968 C 232.514 112.522,232.799 111.536,231.671 111.139 C 230.937 110.881,229.136 111.299,228.579 111.856 C 228.375 112.060,227.612 112.339,226.884 112.476 C 226.157 112.612,225.277 112.933,224.929 113.188 C 224.581 113.443,223.692 113.781,222.952 113.940 C 222.213 114.098,221.263 114.437,220.841 114.693 C 220.420 114.948,219.460 115.286,218.709 115.444 C 217.958 115.601,217.106 115.953,216.815 116.226 C 216.202 116.802,215.241 116.650,215.735 116.056 C 215.892 115.866,216.168 115.711,216.348 115.711 C 216.528 115.711,216.749 115.476,216.840 115.189 C 216.931 114.902,217.368 114.516,217.812 114.331 C 218.255 114.146,218.761 113.822,218.935 113.612 C 219.109 113.402,219.627 113.160,220.085 113.074 C 220.542 112.988,221.509 112.536,222.233 112.070 C 222.957 111.604,223.630 111.222,223.728 111.222 C 223.826 111.222,223.972 111.015,224.053 110.761 C 224.133 110.508,224.478 110.173,224.818 110.018 C 225.158 109.863,225.436 109.600,225.436 109.434 C 225.436 108.957,227.419 107.232,227.967 107.232 C 228.669 107.232,229.426 106.779,229.426 106.359 C 229.426 105.256,226.163 105.050,225.261 106.096 C 224.959 106.447,224.639 106.733,224.549 106.733 C 224.459 106.733,223.790 107.338,223.062 108.078 C 222.133 109.022,221.361 109.547,220.470 109.843 C 219.773 110.075,219.202 110.353,219.202 110.461 C 219.202 110.570,218.669 110.796,218.017 110.965 C 217.366 111.133,216.688 111.314,216.512 111.367 C 215.543 111.657,216.104 110.573,217.874 108.735 C 222.445 103.988,222.943 103.446,222.943 103.225 C 222.943 103.097,223.107 102.993,223.308 102.993 C 223.509 102.993,223.803 102.740,223.963 102.431 C 224.122 102.123,224.479 101.621,224.756 101.317 C 225.172 100.859,225.205 100.696,224.944 100.381 C 224.238 99.531,223.387 99.920,221.137 102.120 C 219.945 103.286,218.913 104.239,218.845 104.239 C 218.776 104.239,217.770 105.165,216.609 106.297 C 215.448 107.428,214.350 108.491,214.169 108.659 C 213.597 109.189,213.188 109.581,212.463 110.293 C 211.684 111.058,211.364 110.868,211.629 109.799 C 211.795 109.129,214.192 106.061,214.853 105.672 C 215.029 105.568,215.430 105.063,215.744 104.550 C 216.058 104.036,216.448 103.480,216.609 103.314 C 216.771 103.147,217.043 102.418,217.214 101.693 C 217.564 100.203,218.499 98.408,219.367 97.558 C 220.061 96.879,220.121 96.119,219.507 95.791 C 218.935 95.484,218.225 95.872,216.908 97.213 C 216.729 97.394,216.331 97.799,216.023 98.113 C 215.715 98.427,215.393 99.065,215.308 99.529 C 215.034 101.024,211.228 105.736,210.293 105.736 C 209.647 105.736,210.114 102.964,210.966 101.746 C 211.206 101.403,211.482 100.673,211.580 100.125 C 211.678 99.576,212.015 98.678,212.329 98.130 C 212.643 97.581,212.981 96.683,213.080 96.135 C 213.178 95.586,213.401 94.969,213.574 94.763 C 214.118 94.117,214.189 93.592,213.807 93.045 L 213.436 92.516 212.564 93.182 C 211.629 93.894,210.973 94.940,210.973 95.715 C 210.973 95.977,210.764 96.460,210.509 96.787 C 210.255 97.114,209.895 97.830,209.710 98.379 C 209.525 98.928,209.220 99.562,209.033 99.789 C 208.846 100.016,208.537 100.724,208.345 101.361 C 208.153 101.998,207.768 102.809,207.489 103.164 C 207.211 103.518,206.983 104.025,206.983 104.289 C 206.983 104.917,206.620 105.577,205.855 106.342 C 205.515 106.682,205.237 107.189,205.237 107.470 C 205.237 107.751,205.114 107.980,204.964 107.980 C 204.263 107.980,205.340 103.358,206.562 101.122 C 207.041 100.246,207.111 99.715,207.139 96.758 C 207.156 94.906,207.247 93.055,207.341 92.643 C 207.572 91.636,206.968 90.772,206.314 91.173 C 205.472 91.689,204.477 93.731,204.462 94.973 C 204.431 97.581,203.945 100.368,203.369 101.247 C 203.055 101.727,202.725 102.569,202.637 103.117 C 202.549 103.666,202.407 104.451,202.322 104.863 L 202.167 105.611 201.941 104.863 C 201.817 104.451,201.602 101.197,201.463 97.631 C 201.168 90.070,201.252 90.524,200.147 90.524 C 198.911 90.524,198.942 90.346,198.639 99.037 C 198.381 106.403,198.266 107.576,197.844 107.154 C 197.540 106.851,197.034 103.368,197.021 101.496 C 197.005 99.263,196.328 96.926,194.996 94.514 C 194.708 93.991,194.514 93.159,194.514 92.440 C 194.513 90.399,193.878 89.737,193.086 90.951 M194.015 92.873 C 194.015 94.864,194.310 95.981,194.858 96.059 C 195.500 96.151,195.706 97.339,195.739 101.151 C 195.757 103.250,195.842 103.777,196.245 104.290 C 196.514 104.631,196.801 105.507,196.888 106.256 C 197.302 109.781,199.002 110.108,199.002 106.662 C 199.002 102.857,199.271 101.496,200.021 101.496 C 200.806 101.496,200.841 101.632,201.125 105.736 C 201.348 108.951,201.932 110.332,202.470 108.915 C 202.643 108.459,203.242 103.866,203.242 102.992 C 203.242 102.866,203.473 102.547,203.755 102.284 C 204.099 101.964,204.341 101.293,204.489 100.251 C 204.641 99.173,204.856 98.593,205.189 98.360 C 205.458 98.171,205.739 97.587,205.828 97.031 C 206.092 95.376,206.484 95.564,206.484 97.346 C 206.484 98.234,206.375 98.998,206.243 99.044 C 206.110 99.090,205.847 99.865,205.659 100.767 C 205.470 101.669,205.054 102.762,204.733 103.195 C 204.225 103.883,204.148 104.279,204.133 106.294 C 204.106 109.913,204.992 111.058,205.781 108.424 C 205.945 107.878,206.326 107.269,206.629 107.071 C 206.995 106.831,207.233 106.349,207.341 105.628 C 207.430 105.033,207.714 104.356,207.971 104.123 C 208.228 103.890,208.573 103.142,208.736 102.462 C 208.909 101.738,209.151 101.266,209.317 101.324 C 209.715 101.465,209.572 104.048,209.149 104.364 C 208.728 104.679,208.229 106.100,208.229 106.986 C 208.229 107.359,207.983 107.976,207.682 108.359 C 207.122 109.071,207.010 110.601,207.483 111.074 C 207.796 111.387,208.479 110.779,208.479 110.186 C 208.479 109.923,208.872 109.316,209.352 108.836 C 209.832 108.356,210.224 107.842,210.224 107.694 C 210.224 107.545,211.128 106.504,212.232 105.379 C 213.336 104.254,214.449 102.989,214.705 102.567 C 214.962 102.145,215.290 101.727,215.434 101.638 C 215.578 101.549,215.770 100.919,215.860 100.239 C 216.009 99.116,216.448 98.621,216.792 99.190 C 217.075 99.657,216.426 102.383,215.954 102.711 C 215.683 102.899,215.461 103.198,215.461 103.376 C 215.461 103.553,214.732 104.465,213.841 105.403 C 212.949 106.340,212.156 107.304,212.078 107.544 C 212.000 107.784,211.844 107.980,211.731 107.980 C 211.619 107.980,211.293 108.476,211.008 109.083 C 210.723 109.689,210.374 110.257,210.232 110.344 C 210.091 110.432,209.975 110.949,209.975 111.494 C 209.975 112.705,210.520 113.023,211.305 112.270 C 212.363 111.256,216.357 107.487,217.706 106.229 C 218.460 105.526,219.386 104.788,219.763 104.589 C 220.140 104.389,220.449 104.061,220.449 103.859 C 220.449 103.657,220.608 103.491,220.803 103.491 C 220.997 103.491,221.334 103.423,221.551 103.340 C 221.768 103.257,221.945 103.305,221.945 103.447 C 221.945 103.590,221.693 103.742,221.384 103.786 C 220.989 103.842,220.800 104.060,220.746 104.526 C 220.700 104.929,220.482 105.235,220.187 105.313 C 219.921 105.382,219.630 105.646,219.540 105.899 C 219.450 106.152,219.084 106.659,218.728 107.026 C 218.371 107.392,217.968 107.814,217.830 107.962 C 217.693 108.110,217.048 108.719,216.397 109.315 C 215.745 109.911,215.212 110.530,215.212 110.691 C 215.212 110.852,214.931 111.111,214.589 111.267 C 214.246 111.424,213.965 111.694,213.965 111.868 C 213.965 112.043,213.628 112.425,213.217 112.718 C 212.755 113.047,212.469 113.471,212.469 113.828 C 212.469 114.205,212.287 114.453,211.945 114.543 C 211.657 114.618,211.495 114.799,211.586 114.946 C 211.832 115.344,212.469 115.266,212.469 114.838 C 212.469 114.611,212.701 114.464,213.058 114.464 C 213.382 114.464,214.071 114.127,214.589 113.716 C 215.106 113.304,215.688 112.968,215.882 112.968 C 216.075 112.968,216.480 112.702,216.782 112.377 C 217.085 112.052,217.724 111.707,218.204 111.610 C 219.425 111.364,222.619 109.781,222.789 109.337 C 222.866 109.135,223.213 108.862,223.560 108.731 C 223.906 108.599,224.190 108.334,224.190 108.141 C 224.190 107.614,224.773 107.225,225.184 107.479 C 225.657 107.772,225.121 108.813,224.136 109.514 C 223.754 109.786,223.441 110.165,223.441 110.356 C 223.441 110.547,222.994 110.837,222.447 111.001 C 221.901 111.165,221.281 111.562,221.070 111.884 C 220.795 112.304,220.453 112.469,219.854 112.469 C 219.304 112.469,218.701 112.723,218.080 113.217 C 217.562 113.628,217.014 113.970,216.861 113.976 C 216.708 113.982,215.981 114.526,215.246 115.185 C 213.609 116.651,213.691 117.650,215.423 117.363 C 215.924 117.280,216.587 117.211,216.895 117.210 C 217.204 117.208,217.698 116.965,217.994 116.670 C 218.320 116.344,219.177 115.998,220.176 115.791 C 221.080 115.604,221.945 115.284,222.098 115.081 C 222.467 114.590,224.707 114.169,225.121 114.513 C 225.621 114.927,225.252 115.186,223.911 115.364 C 222.927 115.495,222.609 115.651,222.444 116.085 C 222.281 116.513,221.976 116.668,221.103 116.766 C 220.385 116.847,219.690 117.133,219.194 117.549 C 218.766 117.910,218.284 118.205,218.123 118.206 C 217.107 118.211,215.952 118.772,215.813 119.329 C 215.729 119.661,215.448 120.000,215.187 120.083 C 214.926 120.165,214.713 120.338,214.713 120.466 C 214.713 120.843,216.212 120.731,216.619 120.324 C 216.920 120.024,217.763 119.950,220.903 119.947 C 225.250 119.944,226.683 119.789,226.683 119.321 C 226.683 118.894,227.262 118.703,228.559 118.703 C 230.427 118.703,230.042 119.336,227.865 119.845 C 227.486 119.933,227.073 120.190,226.947 120.414 C 226.755 120.757,226.071 120.845,222.733 120.961 C 219.003 121.090,218.686 121.139,217.790 121.731 C 217.264 122.079,216.504 122.566,216.102 122.814 L 215.370 123.263 215.905 123.696 C 216.380 124.081,217.426 124.150,225.181 124.314 C 232.443 124.468,234.760 124.640,234.117 124.978 C 234.075 125.001,230.224 125.093,225.561 125.184 C 217.318 125.344,215.461 125.532,215.461 126.209 C 215.461 126.333,215.489 126.435,215.524 126.437 C 216.399 126.483,220.369 127.502,220.663 127.756 C 220.888 127.951,221.633 128.245,222.319 128.412 C 223.005 128.578,223.822 128.953,224.136 129.246 C 224.643 129.721,225.049 129.788,227.876 129.863 C 232.922 129.997,233.889 130.496,229.685 130.797 C 226.164 131.049,223.830 130.778,223.015 130.023 C 222.647 129.682,222.064 129.426,221.657 129.426 C 221.264 129.426,219.907 129.196,218.642 128.914 C 216.915 128.529,216.200 128.467,215.771 128.662 L 215.199 128.923 215.700 129.904 C 216.135 130.757,216.386 130.939,217.627 131.299 C 218.412 131.527,219.327 131.929,219.660 132.191 C 219.994 132.454,220.642 132.668,221.100 132.668 C 221.710 132.668,222.041 132.833,222.334 133.280 C 222.617 133.712,223.055 133.939,223.828 134.055 C 224.967 134.226,225.679 134.733,225.198 135.030 C 224.800 135.277,222.715 134.898,222.326 134.509 C 221.827 134.011,220.792 133.666,219.797 133.666 C 219.209 133.666,218.752 133.477,218.380 133.081 C 217.990 132.666,217.438 132.451,216.478 132.339 C 215.734 132.253,215.010 132.068,214.869 131.927 C 214.729 131.786,214.271 131.680,213.853 131.691 L 213.092 131.710 213.763 131.956 C 214.226 132.125,214.458 132.408,214.511 132.871 C 214.572 133.399,214.790 133.607,215.538 133.851 C 216.473 134.156,216.889 134.474,219.166 136.622 C 221.160 138.503,222.543 139.569,223.317 139.822 C 223.728 139.957,224.065 140.225,224.065 140.420 C 224.065 140.837,221.628 140.810,221.486 140.391 C 221.387 140.098,221.139 139.870,219.460 138.529 C 218.773 137.980,218.210 137.409,218.208 137.259 C 218.204 136.980,217.157 136.409,216.648 136.409 C 216.490 136.409,216.055 136.116,215.681 135.757 C 215.206 135.302,214.637 135.066,213.797 134.976 C 213.135 134.905,212.453 134.736,212.282 134.600 C 212.071 134.433,211.970 134.443,211.970 134.633 C 211.970 134.787,212.082 134.913,212.219 134.913 C 212.357 134.913,212.469 135.189,212.469 135.527 C 212.469 135.977,213.235 136.911,215.337 139.022 C 216.914 140.607,218.204 142.006,218.204 142.132 C 218.204 142.258,218.435 142.434,218.718 142.523 C 219.000 142.613,219.338 142.968,219.469 143.312 C 219.600 143.657,219.930 143.997,220.203 144.068 C 220.553 144.160,220.698 144.409,220.698 144.917 C 220.698 145.518,220.801 145.636,221.322 145.636 C 221.742 145.636,221.945 145.774,221.945 146.060 C 221.945 146.390,221.879 146.417,221.646 146.185 C 221.481 146.020,221.206 145.885,221.034 145.885 C 220.741 145.885,220.216 145.460,218.701 143.996 C 218.356 143.664,218.002 143.392,217.913 143.392 C 217.824 143.392,216.807 142.466,215.652 141.334 C 212.918 138.653,210.756 136.783,210.391 136.783 C 209.859 136.783,209.912 137.854,210.459 138.147 C 210.741 138.298,210.975 138.558,210.977 138.724 C 210.980 138.891,211.316 139.521,211.725 140.125 C 212.134 140.728,212.469 141.385,212.469 141.585 C 212.469 141.785,212.735 142.265,213.061 142.652 C 213.389 143.042,213.730 143.867,213.825 144.500 C 213.929 145.188,214.242 145.909,214.610 146.307 C 214.948 146.671,215.287 147.220,215.364 147.528 C 215.444 147.845,215.765 148.152,216.106 148.238 C 216.663 148.377,216.929 149.073,216.565 149.436 C 216.355 149.647,214.754 148.568,214.594 148.108 C 214.518 147.890,214.121 147.337,213.712 146.878 C 213.302 146.420,212.968 145.856,212.968 145.626 C 212.968 145.395,212.687 144.793,212.344 144.288 C 212.001 143.783,211.721 143.243,211.721 143.088 C 211.721 142.719,209.687 139.651,209.442 139.651 C 209.338 139.651,208.947 139.367,208.573 139.021 C 207.297 137.839,206.426 139.541,207.595 140.931 C 207.944 141.345,208.229 141.995,208.229 142.376 C 208.229 143.221,208.707 144.651,209.133 145.078 C 209.502 145.448,209.851 147.476,209.612 147.863 C 209.290 148.384,209.033 148.114,208.739 146.946 C 208.575 146.295,208.225 145.562,207.963 145.317 C 207.700 145.072,207.413 144.423,207.325 143.876 C 207.213 143.172,206.956 142.730,206.451 142.371 C 205.915 141.989,205.736 141.658,205.736 141.053 C 205.736 139.831,205.113 139.114,204.613 139.761 C 204.058 140.480,204.159 141.873,204.863 143.195 C 205.451 144.299,205.486 144.587,205.486 148.231 C 205.486 151.841,205.714 153.367,206.254 153.367 C 206.488 153.367,207.010 155.724,206.874 156.163 C 206.820 156.340,206.702 156.815,206.612 157.219 C 206.380 158.268,205.994 157.562,205.989 156.079 C 205.983 154.258,205.734 153.367,205.232 153.367 C 204.589 153.367,204.493 152.914,204.318 149.068 C 204.203 146.537,204.062 145.494,203.799 145.231 C 203.601 145.033,203.324 144.054,203.184 143.056 C 202.598 138.881,200.998 139.664,200.998 144.125 C 200.998 147.312,200.845 147.880,199.992 147.880 L 199.298 147.880 199.140 145.449 C 198.746 139.411,197.511 138.364,197.114 143.730 C 196.957 145.844,196.606 147.382,196.280 147.382 C 195.986 147.382,195.512 148.576,195.508 149.326 C 195.502 150.379,195.236 151.122,194.863 151.122 C 194.549 151.122,194.397 151.496,194.212 152.722 C 194.172 152.985,193.999 153.247,193.828 153.304 C 193.390 153.450,193.416 151.293,193.862 150.424 C 194.052 150.054,194.340 149.105,194.503 148.317 C 194.665 147.528,194.967 146.715,195.172 146.509 C 195.729 145.952,196.010 144.718,196.010 142.824 C 196.010 139.793,194.826 138.354,194.363 140.823 C 194.273 141.302,193.878 142.024,193.484 142.427 C 193.027 142.894,192.768 143.422,192.768 143.886 C 192.768 144.314,192.514 144.887,192.150 145.279 C 191.810 145.646,191.459 146.353,191.370 146.851 C 191.115 148.274,190.850 148.625,190.580 147.898 C 190.341 147.254,190.628 145.138,190.987 144.902 C 191.359 144.657,191.708 143.795,191.897 142.654 C 191.998 142.043,192.305 141.240,192.579 140.869 C 192.990 140.313,193.039 140.030,192.856 139.256 C 192.545 137.941,192.143 137.941,191.641 139.256 C 191.404 139.875,190.944 140.557,190.618 140.770 C 190.292 140.984,190.025 141.312,190.025 141.499 C 190.025 141.686,189.017 142.878,187.786 144.148 C 186.554 145.417,185.481 146.664,185.400 146.919 C 185.319 147.173,185.167 147.382,185.061 147.382 C 184.757 147.382,184.289 148.581,184.289 149.358 C 184.289 150.146,183.699 150.832,183.416 150.373 C 183.083 149.834,183.564 147.137,184.039 146.883 C 184.285 146.752,184.598 146.333,184.735 145.953 C 184.872 145.573,185.641 144.574,186.445 143.733 C 188.200 141.896,188.892 140.981,189.153 140.151 C 189.261 139.808,189.498 139.415,189.679 139.278 C 190.109 138.952,190.213 137.246,189.828 136.861 C 189.596 136.629,189.348 136.725,188.717 137.291 C 188.271 137.692,187.625 138.269,187.282 138.573 C 186.686 139.102,185.828 139.937,185.374 140.429 C 184.917 140.926,182.038 143.551,181.306 144.140 C 180.879 144.483,180.269 145.016,179.950 145.324 C 179.630 145.633,179.248 145.885,179.100 145.885 C 178.952 145.885,178.657 146.135,178.443 146.440 L 178.055 146.994 178.055 146.315 C 178.055 145.757,178.166 145.636,178.678 145.636 C 179.179 145.636,179.302 145.512,179.302 145.006 C 179.302 144.564,179.487 144.306,179.925 144.140 C 180.310 143.993,180.549 143.707,180.549 143.392 C 180.549 143.075,180.787 142.790,181.177 142.642 C 181.522 142.510,181.912 142.120,182.043 141.775 C 182.174 141.430,182.456 141.147,182.668 141.147 C 182.881 141.147,183.162 140.865,183.293 140.519 C 183.425 140.174,183.815 139.784,184.160 139.653 C 184.505 139.521,184.788 139.250,184.788 139.051 C 184.788 138.851,185.125 138.448,185.536 138.155 C 185.948 137.862,186.284 137.479,186.284 137.305 C 186.284 137.130,186.565 136.860,186.908 136.704 C 187.364 136.496,187.531 136.226,187.531 135.695 C 187.531 135.155,187.673 134.934,188.088 134.825 C 188.544 134.706,188.586 134.622,188.321 134.360 C 188.056 134.099,187.937 134.121,187.674 134.476 C 187.497 134.716,187.176 134.913,186.962 134.913 C 186.747 134.913,186.237 135.195,185.827 135.540 C 185.417 135.884,184.707 136.325,184.249 136.519 C 183.791 136.713,183.221 137.105,182.982 137.389 C 182.706 137.718,182.252 137.905,181.731 137.905 C 181.275 137.905,180.517 138.175,180.015 138.516 C 179.521 138.852,178.815 139.202,178.447 139.295 C 178.078 139.387,177.610 139.718,177.405 140.030 C 177.201 140.341,176.816 140.653,176.550 140.723 C 176.284 140.793,175.955 141.141,175.820 141.497 C 175.574 142.144,174.975 142.359,174.693 141.902 C 174.366 141.373,176.515 138.938,177.767 138.420 C 178.168 138.254,178.732 137.846,179.022 137.513 C 179.392 137.087,179.807 136.908,180.422 136.908 C 180.998 136.908,181.488 136.716,181.855 136.347 C 182.162 136.038,182.807 135.595,183.289 135.362 C 185.089 134.492,186.173 133.294,185.833 132.548 C 185.629 132.101,185.392 131.927,185.098 132.008 C 184.859 132.074,184.141 132.198,183.503 132.285 C 182.779 132.383,182.093 132.673,181.682 133.054 C 181.221 133.481,180.735 133.666,180.072 133.666 C 179.474 133.666,178.787 133.893,178.216 134.280 C 176.989 135.114,174.723 135.439,174.853 134.763 C 174.921 134.412,175.261 134.243,176.195 134.094 C 177.136 133.944,177.507 133.758,177.688 133.344 C 177.875 132.919,178.208 132.761,179.146 132.653 C 179.894 132.567,180.485 132.345,180.684 132.073 C 180.861 131.830,181.661 131.438,182.461 131.201 C 183.556 130.877,183.994 130.608,184.233 130.113 C 184.409 129.752,184.775 129.385,185.048 129.299 C 185.320 129.212,185.479 129.037,185.400 128.910 C 185.176 128.546,183.998 128.639,183.536 129.057 C 183.204 129.357,182.140 129.463,178.422 129.564 C 174.236 129.677,173.692 129.741,173.406 130.149 C 172.902 130.869,170.324 131.105,170.324 130.431 C 170.324 130.328,170.932 130.052,171.676 129.818 C 172.419 129.584,173.083 129.248,173.151 129.070 C 173.241 128.834,174.268 128.716,176.981 128.628 C 179.494 128.548,180.898 128.396,181.343 128.157 C 186.438 125.427,185.930 125.188,175.008 125.184 C 170.717 125.182,166.956 125.113,166.649 125.031 C 165.329 124.677,166.609 124.438,169.902 124.423 C 182.618 124.365,187.981 123.576,182.348 122.593 C 181.221 122.396,179.934 122.011,179.488 121.737 C 179.043 121.463,178.229 121.159,177.681 121.062 C 177.132 120.965,176.428 120.653,176.115 120.368 C 175.467 119.777,173.800 119.506,170.574 119.469 C 168.431 119.443,167.292 119.144,168.125 118.824 C 169.280 118.381,176.512 118.820,177.100 119.369 C 177.516 119.757,178.234 119.987,179.629 120.180 C 180.701 120.327,181.788 120.561,182.044 120.698 C 182.634 121.013,184.048 121.015,184.539 120.701 C 185.353 120.179,184.109 118.634,182.532 118.206 C 181.771 117.999,180.830 117.578,180.441 117.269 C 180.026 116.941,179.388 116.708,178.900 116.708 C 178.296 116.708,177.959 116.544,177.675 116.111 C 177.401 115.692,176.955 115.465,176.179 115.349 C 175.036 115.177,174.532 114.791,175.041 114.477 C 175.419 114.243,177.558 114.567,177.769 114.890 C 178.047 115.317,178.883 115.641,180.175 115.822 C 180.958 115.932,181.562 116.177,181.800 116.482 C 182.057 116.811,182.619 117.017,183.546 117.122 C 184.298 117.206,185.025 117.357,185.162 117.456 C 185.603 117.776,186.783 117.973,186.783 117.728 C 186.783 117.598,186.531 117.455,186.222 117.411 C 185.829 117.356,185.638 117.137,185.585 116.680 C 185.516 116.082,184.719 115.461,184.021 115.461 C 183.783 115.461,183.220 114.982,180.842 112.754 C 178.769 110.813,177.445 109.804,176.746 109.634 C 176.063 109.468,175.777 108.754,176.372 108.699 C 177.641 108.582,178.751 108.920,178.928 109.477 C 179.015 109.751,179.217 109.975,179.378 109.975 C 179.539 109.975,179.952 110.252,180.297 110.590 C 182.196 112.456,182.815 112.968,183.170 112.968 C 183.387 112.968,183.843 113.246,184.184 113.587 C 184.579 113.982,185.394 114.344,186.432 114.585 C 188.325 115.024,188.564 115.041,187.968 114.693 C 187.728 114.553,187.531 114.162,187.531 113.824 C 187.531 113.372,186.771 112.450,184.663 110.344 C 183.086 108.768,181.796 107.385,181.796 107.271 C 181.796 107.156,181.515 106.935,181.172 106.779 C 180.829 106.622,180.549 106.286,180.549 106.030 C 180.549 105.775,180.268 105.439,179.925 105.282 C 179.500 105.089,179.302 104.798,179.302 104.369 C 179.302 103.865,179.178 103.741,178.678 103.741 C 178.196 103.741,178.057 103.614,178.062 103.180 C 178.069 102.678,178.097 102.665,178.324 103.055 C 178.464 103.295,178.733 103.491,178.921 103.491 C 179.227 103.491,179.624 103.810,181.430 105.508 C 181.709 105.770,182.015 105.985,182.110 105.985 C 182.205 105.985,183.232 106.939,184.393 108.105 C 185.553 109.271,186.622 110.224,186.768 110.224 C 186.913 110.224,187.032 110.319,187.032 110.435 C 187.032 111.053,189.573 112.779,189.941 112.411 C 190.271 112.080,190.241 111.960,189.670 111.344 C 189.317 110.963,189.027 110.516,189.027 110.351 C 189.027 110.187,188.807 109.853,188.538 109.609 C 188.269 109.366,187.918 108.759,187.759 108.262 C 187.600 107.764,187.263 107.129,187.011 106.852 C 186.759 106.574,186.424 105.749,186.267 105.018 C 186.111 104.286,185.765 103.471,185.500 103.206 C 185.235 102.940,184.908 102.436,184.775 102.086 C 184.642 101.735,184.317 101.392,184.054 101.323 C 183.488 101.175,183.176 100.515,183.514 100.177 C 183.846 99.845,185.123 100.798,185.788 101.875 C 186.083 102.352,186.419 102.743,186.534 102.743 C 186.649 102.743,186.926 103.296,187.151 103.971 C 187.375 104.646,187.713 105.327,187.903 105.484 C 188.092 105.642,188.313 106.071,188.394 106.439 C 188.475 106.806,188.929 107.612,189.403 108.229 C 190.373 109.493,190.313 109.431,191.581 110.490 L 192.513 111.269 192.765 110.606 C 193.139 109.624,193.075 109.107,192.519 108.603 C 192.244 108.355,192.020 108.007,192.020 107.829 C 192.020 106.971,191.435 104.937,191.089 104.591 C 190.407 103.909,190.165 101.247,190.784 101.247 C 190.896 101.247,191.165 101.860,191.383 102.608 C 191.601 103.357,191.953 104.067,192.167 104.187 C 192.380 104.306,192.619 104.880,192.697 105.463 C 192.800 106.235,193.027 106.660,193.536 107.036 C 194.000 107.379,194.286 107.868,194.393 108.500 C 194.599 109.724,195.122 110.203,195.494 109.509 C 195.917 108.718,195.803 107.177,195.262 106.359 C 194.832 105.710,194.766 105.185,194.765 102.390 C 194.763 98.769,194.386 96.010,193.894 96.010 C 193.350 96.010,193.007 93.238,193.418 92.166 C 193.656 91.545,194.015 91.969,194.015 92.873 M206.527 92.784 L 206.305 93.383 206.129 92.829 C 205.924 92.182,206.178 91.614,206.520 91.956 C 206.656 92.092,206.658 92.428,206.527 92.784 M188.420 95.634 C 188.604 96.615,188.410 97.367,188.032 97.133 C 187.712 96.936,187.700 94.763,188.019 94.763 C 188.150 94.763,188.330 95.155,188.420 95.634 M212.465 95.713 C 212.460 96.552,212.114 97.126,211.748 96.899 C 211.500 96.746,211.541 96.095,211.864 95.059 C 212.033 94.518,212.469 94.993,212.465 95.713 M217.955 97.866 C 217.955 98.263,217.503 98.633,217.284 98.415 C 217.079 98.210,217.399 97.506,217.698 97.506 C 217.839 97.506,217.955 97.668,217.955 97.866 M189.783 98.878 C 189.881 99.850,189.773 100.748,189.557 100.748 C 189.247 100.748,189.001 99.319,189.185 98.586 C 189.354 97.912,189.703 98.083,189.783 98.878 M210.969 98.955 C 210.964 99.877,210.710 100.748,210.445 100.748 C 210.195 100.748,210.156 99.409,210.381 98.569 C 210.577 97.837,210.974 98.098,210.969 98.955 M183.292 99.540 C 183.292 99.823,182.360 99.810,182.183 99.524 C 182.106 99.399,182.114 99.114,182.200 98.890 C 182.364 98.462,183.292 99.015,183.292 99.540 M172.899 106.335 C 172.973 106.527,172.967 106.751,172.886 106.831 C 172.672 107.045,172.050 106.468,172.212 106.206 C 172.416 105.877,172.747 105.939,172.899 106.335 M209.253 107.493 C 209.024 108.067,209.008 108.049,208.993 107.211 C 208.985 106.720,209.062 106.232,209.165 106.128 C 209.459 105.828,209.524 106.816,209.253 107.493 M228.005 106.359 C 227.946 106.657,226.451 107.015,225.969 106.846 C 225.692 106.749,225.688 106.657,225.948 106.344 C 226.301 105.919,228.090 105.932,228.005 106.359 M175.769 108.068 C 175.848 108.482,175.743 108.512,174.774 108.351 C 173.484 108.138,173.259 108.026,173.460 107.700 C 173.741 107.247,175.672 107.554,175.769 108.068 M170.189 111.953 C 170.414 112.317,169.913 112.500,169.190 112.319 C 168.704 112.197,168.619 112.098,168.867 111.941 C 169.313 111.658,170.011 111.664,170.189 111.953 M231.292 111.963 C 231.472 112.254,230.315 112.585,229.935 112.350 C 229.788 112.259,229.732 112.081,229.811 111.953 C 230.000 111.647,231.101 111.654,231.292 111.963 M174.277 113.358 C 174.325 113.399,174.282 113.566,174.182 113.728 C 173.999 114.024,172.194 113.923,171.869 113.598 C 171.400 113.129,173.738 112.896,174.277 113.358 M227.930 113.221 C 228.263 113.439,228.263 113.494,227.930 113.718 C 227.468 114.030,225.810 113.932,225.810 113.593 C 225.810 113.387,226.135 113.268,227.431 113.001 C 227.500 112.987,227.724 113.086,227.930 113.221 M174.314 135.899 C 174.314 136.200,172.702 136.514,172.181 136.313 C 171.965 136.231,171.859 136.050,171.944 135.912 C 172.142 135.592,174.314 135.580,174.314 135.899 M228.150 135.887 C 228.419 136.057,228.374 136.144,227.941 136.281 C 227.239 136.504,225.624 136.212,225.818 135.898 C 226.001 135.601,227.687 135.593,228.150 135.887 M170.324 137.433 C 170.324 137.556,169.988 137.656,169.576 137.656 C 168.770 137.656,168.547 137.256,169.264 137.097 C 169.809 136.976,170.324 137.139,170.324 137.433 M231.172 137.406 C 231.172 137.711,230.263 137.866,229.890 137.625 C 229.604 137.441,229.604 137.372,229.890 137.188 C 230.263 136.947,231.172 137.102,231.172 137.406 M226.015 141.258 C 227.055 141.490,226.694 142.032,225.548 141.960 C 225.023 141.926,224.489 141.796,224.363 141.670 C 224.031 141.338,224.408 140.858,224.896 140.989 C 225.125 141.051,225.628 141.171,226.015 141.258 M190.914 143.333 C 190.621 143.626,190.545 143.207,190.718 142.256 L 190.898 141.272 190.977 142.232 C 191.020 142.760,190.992 143.256,190.914 143.333 M174.190 142.914 C 174.190 143.144,173.853 143.294,173.222 143.346 C 172.014 143.445,171.431 142.991,172.470 142.760 C 172.867 142.672,173.304 142.563,173.441 142.518 C 173.870 142.377,174.190 142.546,174.190 142.914 M227.930 143.017 C 227.930 143.223,227.762 143.392,227.556 143.392 C 227.350 143.392,227.182 143.223,227.182 143.017 C 227.182 142.812,227.350 142.643,227.556 142.643 C 227.762 142.643,227.930 142.812,227.930 143.017 M189.820 149.819 C 189.838 151.162,189.417 151.962,189.182 151.029 C 189.092 150.669,189.092 150.065,189.182 149.688 C 189.522 148.265,189.799 148.322,189.820 149.819 M210.864 149.500 C 211.079 150.643,210.768 151.996,210.463 151.247 C 210.176 150.544,210.176 148.628,210.463 148.628 C 210.593 148.628,210.774 149.020,210.864 149.500 M217.910 150.314 C 217.954 150.621,217.887 150.873,217.762 150.873 C 217.407 150.873,216.686 149.981,216.883 149.784 C 217.221 149.446,217.831 149.761,217.910 150.314 M182.875 151.226 C 182.950 151.421,182.834 151.648,182.617 151.731 C 182.118 151.922,181.942 151.750,182.131 151.258 C 182.316 150.776,182.696 150.760,182.875 151.226 M188.424 153.722 C 188.332 154.212,188.150 154.613,188.019 154.613 C 187.749 154.613,187.690 152.793,187.951 152.531 C 188.308 152.174,188.584 152.868,188.424 153.722 M212.361 152.973 C 212.554 153.742,212.424 154.421,212.061 154.542 C 211.781 154.635,211.485 153.199,211.670 152.646 C 211.830 152.167,212.204 152.344,212.361 152.973 M194.015 156.843 C 194.015 157.109,193.903 157.397,193.766 157.481 C 193.624 157.569,193.516 157.359,193.516 156.997 C 193.516 156.646,193.628 156.359,193.766 156.359 C 193.903 156.359,194.015 156.577,194.015 156.843 " stroke="none" fill="#bc8c74" fill-rule="evenodd"></path><path id="path4" d="M0.000 83.042 C 0.000 83.208,66.833 83.292,200.000 83.292 C 333.167 83.292,400.000 83.208,400.000 83.042 C 400.000 82.876,333.167 82.793,200.000 82.793 C 66.833 82.793,0.000 82.876,0.000 83.042 M199.052 90.574 C 198.888 90.738,198.768 91.215,198.786 91.633 C 198.819 92.388,198.820 92.387,198.973 91.521 C 199.120 90.688,199.175 90.648,200.164 90.648 C 200.734 90.648,201.148 90.564,201.084 90.461 C 200.898 90.162,199.380 90.246,199.052 90.574 M207.006 91.209 C 207.190 91.450,207.348 91.669,207.358 91.697 C 207.368 91.725,207.512 91.529,207.680 91.260 C 207.953 90.823,207.917 90.773,207.328 90.773 C 206.742 90.773,206.708 90.820,207.006 91.209 M212.210 93.285 L 211.347 94.051 212.282 93.380 C 213.108 92.787,213.377 92.519,213.145 92.519 C 213.106 92.519,212.685 92.863,212.210 93.285 M201.305 95.511 C 201.305 95.991,201.356 96.188,201.419 95.948 C 201.482 95.708,201.482 95.315,201.419 95.075 C 201.356 94.835,201.305 95.031,201.305 95.511 M204.302 96.384 C 204.305 96.933,204.356 97.128,204.416 96.818 C 204.475 96.507,204.473 96.058,204.411 95.820 C 204.348 95.582,204.300 95.835,204.302 96.384 M224.920 100.312 C 225.191 100.673,225.191 100.823,224.920 101.185 C 224.607 101.600,224.614 101.600,225.067 101.185 C 225.536 100.755,225.536 100.741,225.067 100.312 C 224.614 99.896,224.607 99.896,224.920 100.312 M210.759 102.031 C 210.583 102.312,210.494 102.597,210.561 102.664 C 210.628 102.731,210.813 102.542,210.973 102.244 C 211.349 101.540,211.174 101.365,210.759 102.031 M205.050 105.070 C 204.660 105.931,204.651 106.317,205.027 106.085 C 205.227 105.962,205.265 106.071,205.152 106.445 C 205.061 106.741,204.918 107.207,204.834 107.481 C 204.743 107.774,204.795 107.980,204.958 107.980 C 205.112 107.980,205.237 107.751,205.237 107.470 C 205.237 107.189,205.503 106.694,205.828 106.368 C 206.364 105.832,206.378 105.766,205.974 105.661 C 205.729 105.596,205.491 105.282,205.445 104.962 C 205.363 104.390,205.356 104.391,205.050 105.070 M171.488 105.154 C 171.397 105.245,171.330 105.554,171.339 105.840 C 171.356 106.344,171.362 106.345,171.549 105.866 C 171.655 105.595,172.012 105.298,172.342 105.205 L 172.943 105.037 172.298 105.012 C 171.944 104.999,171.579 105.062,171.488 105.154 M209.165 106.128 C 209.062 106.232,208.985 106.720,208.993 107.211 C 209.008 108.049,209.024 108.067,209.253 107.493 C 209.524 106.816,209.459 105.828,209.165 106.128 M185.321 112.421 C 185.300 112.771,185.179 112.930,185.013 112.828 C 184.820 112.708,184.822 112.815,185.021 113.187 C 185.212 113.543,185.546 113.716,186.044 113.716 C 186.935 113.716,187.021 113.331,186.177 113.119 C 185.813 113.028,185.528 112.742,185.463 112.406 L 185.355 111.845 185.321 112.421 M216.708 115.411 C 216.708 115.576,216.554 115.711,216.365 115.711 C 215.771 115.711,215.380 116.374,215.865 116.560 C 216.094 116.648,216.340 116.661,216.411 116.589 C 216.483 116.518,216.411 116.459,216.251 116.459 C 216.091 116.459,215.960 116.334,215.960 116.180 C 215.960 116.025,216.180 115.959,216.459 116.032 C 217.050 116.187,217.380 115.784,216.986 115.390 C 216.782 115.186,216.708 115.192,216.708 115.411 M171.592 117.546 C 171.649 117.595,172.313 117.699,173.067 117.776 C 173.921 117.862,174.251 117.835,173.940 117.703 C 173.462 117.500,171.377 117.361,171.592 117.546 M220.449 117.768 C 220.449 117.992,220.569 118.249,220.715 118.339 C 221.143 118.604,221.184 118.367,220.803 117.845 C 220.507 117.440,220.449 117.428,220.449 117.768 M233.615 118.647 C 233.477 119.151,233.351 119.197,232.491 119.060 C 231.740 118.940,231.441 119.004,231.160 119.343 C 230.824 119.750,230.837 119.757,231.341 119.443 C 231.760 119.182,232.023 119.169,232.500 119.386 C 233.268 119.736,234.019 119.284,233.870 118.562 C 233.780 118.127,233.755 118.135,233.615 118.647 M222.514 118.637 C 223.169 118.689,224.179 118.688,224.758 118.636 C 225.337 118.584,224.800 118.542,223.566 118.542 C 222.332 118.543,221.858 118.586,222.514 118.637 M174.279 120.704 C 174.877 120.975,175.438 121.192,175.526 121.187 C 175.841 121.166,173.932 120.220,173.566 120.215 C 173.360 120.213,173.681 120.432,174.279 120.704 M177.557 122.242 C 177.556 123.097,177.591 123.114,179.676 123.280 C 181.397 123.417,181.402 123.415,180.050 123.180 C 179.030 123.002,178.535 122.765,178.118 122.256 L 177.559 121.571 177.557 122.242 M219.354 122.312 C 219.132 122.652,218.586 123.034,218.141 123.163 C 217.491 123.350,217.799 123.400,219.701 123.413 C 222.030 123.430,222.056 123.423,221.268 123.034 C 220.826 122.817,220.398 122.427,220.316 122.167 C 220.114 121.532,219.838 121.574,219.354 122.312 M164.827 124.328 C 164.557 124.653,164.600 124.803,165.099 125.263 L 165.692 125.810 165.231 125.254 C 164.853 124.798,164.826 124.629,165.083 124.319 C 165.256 124.111,165.342 123.940,165.273 123.940 C 165.204 123.940,165.004 124.115,164.827 124.328 M178.865 126.118 C 179.989 126.207,180.050 126.249,180.050 126.946 C 180.050 127.845,180.357 127.885,180.900 127.057 C 181.124 126.714,181.474 126.434,181.677 126.434 C 181.879 126.434,182.045 126.322,182.045 126.185 C 182.045 126.034,181.181 125.953,179.863 125.980 C 178.556 126.007,178.156 126.063,178.865 126.118 M219.576 126.185 C 219.850 126.302,220.332 126.407,220.647 126.416 C 220.962 126.426,221.495 126.709,221.832 127.046 L 222.444 127.658 222.444 126.938 C 222.444 126.344,222.564 126.199,223.130 126.114 C 223.507 126.057,222.749 126.001,221.446 125.990 C 219.921 125.977,219.255 126.047,219.576 126.185 M166.397 130.085 C 165.924 130.284,166.014 131.805,166.521 132.189 C 166.892 132.470,166.911 132.467,166.646 132.170 C 165.794 131.215,166.458 129.995,167.611 130.397 C 168.068 130.556,168.333 130.580,168.199 130.448 C 167.881 130.137,166.794 129.918,166.397 130.085 M175.374 130.855 C 175.888 130.909,176.730 130.909,177.244 130.855 C 177.759 130.801,177.338 130.757,176.309 130.757 C 175.281 130.757,174.860 130.801,175.374 130.855 M178.574 130.988 C 178.632 131.023,178.947 131.276,179.276 131.549 L 179.873 132.045 179.579 131.484 C 179.417 131.175,179.101 130.923,178.877 130.923 C 178.654 130.923,178.517 130.952,178.574 130.988 M226.816 131.936 C 227.253 132.063,227.884 132.062,228.312 131.935 C 228.935 131.749,228.815 131.714,227.556 131.715 C 226.286 131.716,226.174 131.749,226.816 131.936 M182.846 133.562 C 182.659 133.766,182.633 133.915,182.783 133.915 C 182.926 133.915,183.050 134.112,183.058 134.352 C 183.070 134.666,183.142 134.619,183.315 134.185 C 183.603 133.465,183.300 133.063,182.846 133.562 M213.328 135.932 C 213.225 136.099,213.243 136.173,213.368 136.096 C 213.649 135.922,214.331 136.400,214.528 136.908 C 214.642 137.200,214.678 137.183,214.694 136.831 C 214.704 136.583,214.824 136.448,214.960 136.532 C 215.101 136.619,215.143 136.519,215.058 136.297 C 214.976 136.084,214.762 135.910,214.582 135.910 C 214.402 135.910,214.089 135.846,213.886 135.769 C 213.683 135.691,213.432 135.764,213.328 135.932 M190.770 141.833 C 190.768 142.073,190.699 142.522,190.616 142.830 C 190.533 143.139,190.569 143.392,190.695 143.392 C 190.822 143.392,190.951 142.943,190.984 142.394 C 191.016 141.845,190.982 141.397,190.908 141.397 C 190.834 141.397,190.772 141.593,190.770 141.833 M194.763 142.360 C 194.763 142.478,194.479 142.859,194.132 143.206 C 193.620 143.719,193.583 143.831,193.936 143.801 C 194.233 143.777,194.414 143.997,194.505 144.490 L 194.638 145.215 194.988 144.561 C 195.246 144.077,195.265 143.821,195.060 143.574 C 194.908 143.391,194.848 142.994,194.927 142.693 C 195.006 142.391,195.001 142.145,194.917 142.145 C 194.832 142.145,194.763 142.242,194.763 142.360 M228.429 143.872 C 228.429 143.999,228.233 144.154,227.993 144.217 C 227.664 144.303,227.695 144.338,228.117 144.360 C 228.463 144.378,228.678 144.245,228.678 144.015 C 228.678 143.809,228.622 143.641,228.554 143.641 C 228.485 143.641,228.429 143.745,228.429 143.872 M224.190 149.377 L 223.317 149.560 224.112 149.593 C 224.550 149.611,224.978 149.514,225.062 149.377 C 225.147 149.239,225.182 149.142,225.139 149.160 C 225.097 149.178,224.670 149.276,224.190 149.377 M175.623 149.548 C 175.863 149.611,176.256 149.611,176.496 149.548 C 176.736 149.486,176.540 149.434,176.060 149.434 C 175.580 149.434,175.383 149.486,175.623 149.548 M203.010 150.249 C 203.010 150.387,203.171 150.779,203.367 151.122 C 203.563 151.465,203.723 151.633,203.723 151.496 C 203.723 151.359,203.563 150.966,203.367 150.623 C 203.171 150.281,203.010 150.112,203.010 150.249 M201.305 153.865 C 201.305 154.345,201.356 154.542,201.419 154.302 C 201.482 154.062,201.482 153.669,201.419 153.429 C 201.356 153.189,201.305 153.385,201.305 153.865 M211.699 155.695 C 212.063 156.149,213.466 157.217,213.466 157.041 C 213.466 156.986,212.989 156.562,212.406 156.099 C 211.824 155.636,211.505 155.454,211.699 155.695 M187.451 156.246 C 187.064 156.586,186.626 156.790,186.477 156.698 C 186.316 156.599,186.279 156.648,186.386 156.820 C 186.507 157.017,186.698 157.032,186.985 156.866 C 187.731 156.435,188.661 155.622,188.404 155.624 C 188.267 155.626,187.838 155.905,187.451 156.246 M207.539 156.608 C 207.539 157.089,207.590 157.285,207.653 157.045 C 207.716 156.805,207.716 156.412,207.653 156.172 C 207.590 155.932,207.539 156.128,207.539 156.608 M192.491 157.668 C 192.373 158.574,192.394 158.603,193.130 158.586 C 193.761 158.571,193.806 158.535,193.392 158.374 C 193.113 158.266,192.831 157.860,192.753 157.457 C 192.617 156.752,192.610 156.758,192.491 157.668 M198.815 158.167 C 198.879 158.990,200.424 159.526,201.019 158.931 C 201.131 158.819,200.732 158.766,200.131 158.813 C 199.081 158.897,199.032 158.870,198.895 158.128 L 198.753 157.357 198.815 158.167 M0.000 166.334 C 0.000 166.500,66.833 166.584,200.000 166.584 C 333.167 166.584,400.000 166.500,400.000 166.334 C 400.000 166.168,333.167 166.085,200.000 166.085 C 66.833 166.085,0.000 166.168,0.000 166.334 " stroke="none" fill="#8cc8e0" fill-rule="evenodd"></path></g></svg>