<svg id="svg" version="1.1" xmlns="http://www.w3.org/2000/svg" xmlns:xlink="http://www.w3.org/1999/xlink" width="400" height="249.2957746478873" viewBox="0, 0, 400,249.2957746478873"><g id="svgg"><path id="path0" d="M0.000 125.686 C 0.000 125.852,66.833 125.935,200.000 125.935 C 333.167 125.935,400.000 125.852,400.000 125.686 C 400.000 125.520,333.167 125.436,200.000 125.436 C 66.833 125.436,0.000 125.520,0.000 125.686 M0.000 188.155 L 0.000 249.377 200.000 249.377 L 400.000 249.377 400.000 188.155 L 400.000 126.933 200.000 126.933 L 0.000 126.933 0.000 188.155 " stroke="none" fill="#dc143c" fill-rule="evenodd"></path><path id="path1" d="M0.000 61.845 L 0.000 123.691 200.000 123.691 L 400.000 123.691 400.000 61.845 L 400.000 0.000 200.000 0.000 L 0.000 0.000 0.000 61.845 " stroke="none" fill="#fcfcfc" fill-rule="evenodd"></path><path id="path2" d="M0.000 124.813 L 0.000 125.436 200.000 125.436 L 400.000 125.436 400.000 124.813 L 400.000 124.190 200.000 124.190 L 0.000 124.190 0.000 124.813 " stroke="none" fill="#eca4ac" fill-rule="evenodd"></path><path id="path3" d="M0.000 126.434 C 0.000 126.932,0.166 126.933,200.000 126.933 C 399.834 126.933,400.000 126.932,400.000 126.434 C 400.000 125.936,399.834 125.935,200.000 125.935 C 0.166 125.935,0.000 125.936,0.000 126.434 " stroke="none" fill="#dc042c" fill-rule="evenodd"></path><path id="path4" d="" stroke="none" fill="#ec100d8" fill-rule="evenodd"></path></g></svg>