<?xml version="1.0" standalone="no"?>
<!DOCTYPE svg PUBLIC "-//W3C//DTD SVG 20010904//EN"
 "http://www.w3.org/TR/2001/REC-SVG-20010904/DTD/svg10.dtd">
<svg version="1.0" xmlns="http://www.w3.org/2000/svg"
 width="394.000000pt" height="166.000000pt" viewBox="0 0 394.000000 166.000000"
 preserveAspectRatio="xMidYMid meet">
<metadata>
Created by potrace 1.16, written by Peter Selinger 2001-2019
</metadata>
<g transform="translate(0.000000,166.000000) scale(0.100000,-0.100000)"
fill="#000000" stroke="none">
<path d="M0 830 l0 -830 1970 0 1970 0 0 830 0 830 -1970 0 -1970 0 0 -830z
m770 185 l0 -45 40 0 40 0 0 45 c0 41 2 45 25 45 l25 0 0 -110 0 -110 -25 0
c-23 0 -25 4 -25 45 l0 45 -40 0 -40 0 0 -45 c0 -41 -2 -45 -25 -45 l-25 0 0
110 0 110 25 0 c23 0 25 -4 25 -45z m1090 -64 l0 -109 -65 -1 c-55 0 -67 3
-80 22 -20 28 -19 87 1 116 13 19 24 22 55 19 38 -3 39 -3 39 29 0 29 3 33 25
33 l25 0 0 -109z m-785 24 c33 -32 33 -78 0 -110 -33 -34 -87 -34 -120 0 -52
51 -15 135 60 135 25 0 44 -8 60 -25z m89 -10 c9 -45 22 -45 30 1 6 31 10 35
33 32 21 -2 29 -11 38 -43 l12 -40 13 43 c11 34 18 42 37 42 12 0 23 -1 23 -2
0 -2 -11 -37 -24 -78 -20 -64 -28 -75 -48 -78 -21 -3 -27 3 -38 40 l-14 43 -9
-42 c-9 -37 -13 -43 -36 -43 -26 0 -31 9 -68 143 -4 13 1 17 20 17 20 0 26 -6
31 -35z m411 10 c52 -51 15 -135 -60 -135 -46 0 -85 36 -85 80 0 44 39 80 85
80 25 0 44 -8 60 -25z m522 13 c4 -7 10 -43 13 -80 l5 -66 -55 0 c-71 -1 -87
4 -93 28 -7 28 18 57 58 64 35 7 44 19 24 32 -6 3 -16 1 -22 -5 -13 -13 -44
-14 -52 -2 -3 5 2 17 11 25 19 19 99 22 111 4z m283 -8 c11 -11 20 -31 20 -45
0 -23 -3 -25 -50 -25 -27 0 -50 -4 -50 -9 0 -17 26 -30 48 -24 12 3 30 2 39
-2 17 -6 17 -7 -1 -21 -29 -21 -92 -18 -116 6 -26 26 -26 80 1 114 26 33 79
36 109 6z m176 -32 l17 -53 17 50 c14 41 21 51 42 53 l26 3 -35 -98 c-20 -54
-41 -104 -46 -111 -13 -16 -69 -12 -75 6 -2 6 3 12 11 12 36 0 38 26 7 106
-16 43 -30 80 -30 81 0 2 11 3 24 3 21 0 27 -8 42 -52z m251 37 c42 -30 34
-121 -12 -139 -64 -24 -125 11 -125 71 0 70 78 109 137 68z m103 -44 c0 -63
11 -81 35 -61 10 8 15 31 15 66 0 51 1 54 25 54 25 0 25 -1 25 -79 l0 -79 -65
-1 c-78 0 -85 8 -85 98 0 58 1 61 25 61 24 0 25 -3 25 -59z"/>
</g>
</svg>
