<?xml version="1.0" standalone="no"?>
<!DOCTYPE svg PUBLIC "-//W3C//DTD SVG 20010904//EN"
 "http://www.w3.org/TR/2001/REC-SVG-20010904/DTD/svg10.dtd">
<svg version="1.0" xmlns="http://www.w3.org/2000/svg"
 width="581.000000pt" height="197.000000pt" viewBox="0 0 581.000000 197.000000"
 preserveAspectRatio="xMidYMid meet">
<metadata>
Created by potrace 1.16, written by Peter Selinger 2001-2019
</metadata>
<g transform="translate(0.000000,197.000000) scale(0.100000,-0.100000)"
fill="#000000" stroke="none">
<path d="M0 985 l0 -985 2905 0 2905 0 0 985 0 985 -2905 0 -2905 0 0 -985z
m1296 51 c41 -41 42 -54 8 -62 -18 -5 -30 -1 -44 14 -26 27 -52 35 -83 23 -58
-22 -59 -159 -1 -181 37 -15 43 -13 74 20 24 26 32 29 54 20 34 -13 33 -25 -8
-66 -31 -31 -40 -34 -90 -34 -50 0 -61 4 -92 33 -61 55 -67 165 -12 224 30 33
53 42 112 42 42 1 52 -3 82 -33z m1874 -116 l0 -150 -30 0 c-16 0 -30 5 -30
10 0 7 -6 7 -19 0 -33 -17 -78 -11 -107 13 -23 20 -28 34 -32 85 -4 58 -3 63
26 92 33 32 87 41 110 18 9 -9 12 -2 12 35 l0 47 35 0 35 0 0 -150z m810 0 l0
-150 -30 0 -30 0 0 150 0 150 30 0 30 0 0 -150z m580 105 c0 -42 2 -45 19 -35
31 16 79 12 101 -10 17 -17 20 -33 20 -115 l0 -95 -30 0 -30 0 0 76 c0 78 -11
114 -35 114 -29 0 -45 -42 -45 -117 l0 -73 -30 0 -30 0 0 150 0 150 30 0 c29
0 30 -2 30 -45z m609 19 c45 -38 42 -76 -9 -125 -22 -21 -40 -45 -40 -54 0
-10 -10 -15 -30 -15 -46 0 -41 39 11 89 46 43 47 76 4 87 -25 6 -65 -10 -65
-26 0 -6 -13 -10 -30 -10 -38 0 -38 14 -1 51 25 24 38 29 79 29 40 0 57 -6 81
-26z m-3631 -58 c34 -18 56 -57 56 -101 0 -95 -98 -146 -181 -95 -61 37 -64
140 -6 187 33 27 90 30 131 9z m262 2 c15 -10 22 -10 32 0 19 19 75 15 98 -8
17 -17 20 -33 20 -115 l0 -95 -30 0 -30 0 0 84 c0 87 -11 113 -43 100 -20 -7
-27 -36 -27 -116 l0 -68 -30 0 -30 0 0 83 c0 100 -17 128 -54 91 -12 -11 -16
-36 -16 -95 l0 -79 -30 0 -30 0 0 110 0 111 40 -3 c22 -1 43 1 46 5 12 11 63
8 84 -5z m369 -2 c34 -18 51 -54 51 -107 0 -33 -7 -48 -34 -75 -29 -29 -41
-34 -79 -34 -82 0 -134 74 -107 154 22 69 100 97 169 62z m368 -12 c21 -21 23
-28 12 -35 -21 -13 -45 -11 -59 6 -17 20 -54 15 -58 -7 -2 -12 11 -20 52 -32
53 -16 86 -44 86 -74 0 -7 -11 -24 -25 -37 -34 -35 -121 -36 -161 -2 -46 40
-2 66 51 31 26 -17 65 -11 65 10 0 6 -21 18 -47 25 -62 16 -83 36 -83 77 0 43
30 64 93 64 38 0 53 -5 74 -26z m226 6 c22 -17 47 -72 47 -102 0 -5 -34 -8
-75 -8 -81 0 -93 -10 -54 -46 16 -15 23 -16 37 -6 31 22 43 25 65 15 l21 -10
-26 -26 c-40 -39 -108 -38 -149 2 -25 26 -29 37 -29 86 0 49 4 60 29 86 37 36
94 40 134 9z m744 -6 c21 -21 23 -28 12 -35 -21 -13 -49 -11 -65 6 -35 35 -67
5 -66 -61 1 -71 32 -94 71 -53 15 16 27 20 45 15 32 -8 33 -20 1 -51 -19 -20
-34 -25 -72 -25 -72 1 -113 42 -113 115 0 73 41 114 113 115 38 0 53 -5 74
-26z m204 16 c24 -13 49 -61 49 -95 0 -24 -2 -25 -71 -25 -66 0 -70 -1 -67
-21 5 -34 33 -47 56 -26 21 20 57 22 68 5 13 -21 -43 -58 -89 -58 -54 0 -83
21 -98 69 -25 84 20 161 93 161 22 0 48 -5 59 -10z m472 -10 c22 -17 47 -72
47 -102 0 -5 -34 -8 -75 -8 -81 0 -93 -10 -54 -46 16 -15 23 -16 37 -6 31 22
43 25 65 15 l21 -10 -26 -26 c-40 -39 -108 -38 -149 2 -25 26 -29 37 -29 86 0
49 4 60 29 86 37 36 94 40 134 9z m254 -6 c21 -21 23 -28 12 -35 -21 -13 -40
-11 -61 8 -15 13 -23 14 -43 5 -22 -10 -25 -18 -25 -61 0 -71 43 -108 72 -61
15 24 56 26 65 3 11 -27 -41 -63 -91 -63 -76 0 -125 65 -110 144 15 81 124
117 181 60z m472 5 c24 -23 41 -59 41 -90 0 -17 -8 -19 -75 -19 -41 0 -75 -3
-75 -8 0 -15 31 -52 44 -52 8 0 19 7 26 15 15 18 56 20 66 3 13 -21 -43 -58
-87 -58 -51 0 -75 13 -94 50 -29 55 -12 144 32 169 32 18 97 13 122 -10z
m-3959 -94 c0 -16 -14 -38 -40 -62 -44 -42 -48 -54 -24 -77 21 -22 51 -20 71
4 18 21 73 28 73 9 0 -6 -13 -24 -29 -40 -61 -61 -191 -24 -191 53 0 23 10 41
40 69 22 21 40 45 40 54 0 10 10 15 30 15 25 0 30 -4 30 -25z"/>
</g>
</svg>
