<?xml version="1.0" standalone="no"?>
<!DOCTYPE svg PUBLIC "-//W3C//DTD SVG 20010904//EN"
 "http://www.w3.org/TR/2001/REC-SVG-20010904/DTD/svg10.dtd">
<svg version="1.0" xmlns="http://www.w3.org/2000/svg"
 width="629.000000pt" height="305.000000pt" viewBox="0 0 629.000000 305.000000"
 preserveAspectRatio="xMidYMid meet">
<metadata>
Created by potrace 1.16, written by Peter Selinger 2001-2019
</metadata>
<g transform="translate(0.000000,305.000000) scale(0.100000,-0.100000)"
fill="#000000" stroke="none">
<path d="M0 1525 l0 -1525 3145 0 3145 0 0 1525 0 1525 -3145 0 -3145 0 0
-1525z m1226 58 c9 -43 19 -82 22 -87 5 -9 15 22 42 122 10 40 13 42 48 42
l37 0 25 -92 24 -93 18 75 c9 41 17 83 18 93 0 13 9 17 36 17 29 0 34 -3 30
-17 -3 -10 -19 -75 -37 -145 l-31 -128 -33 0 c-32 0 -32 0 -55 88 -13 48 -26
91 -30 95 -4 4 -18 -34 -32 -85 l-25 -93 -34 -3 -34 -3 -33 138 c-18 76 -32
141 -32 146 0 4 13 7 29 7 29 0 30 -2 47 -77z m384 27 c0 -47 1 -50 19 -40 32
17 76 12 97 -11 15 -16 20 -40 23 -105 l3 -84 -36 0 -36 0 0 80 c0 64 -3 82
-16 87 -30 11 -48 -23 -52 -97 -4 -70 -4 -70 -33 -70 l-29 0 0 145 0 145 30 0
c29 0 30 -1 30 -50z m3386 27 c41 -36 38 -82 -9 -122 -20 -18 -37 -40 -37 -49
0 -11 -9 -16 -30 -16 -43 0 -40 36 5 80 37 35 43 58 23 78 -18 18 -46 15 -65
-8 -10 -11 -30 -20 -44 -20 -22 0 -26 4 -22 20 16 60 126 82 179 37z m-2916
-22 c0 -28 4 -35 20 -35 13 0 20 -7 20 -20 0 -13 -7 -20 -20 -20 -19 0 -21 -5
-18 -62 3 -53 6 -63 21 -62 12 1 17 -5 17 -22 0 -21 -5 -24 -40 -24 -50 0 -60
17 -60 104 0 52 -3 66 -15 66 -8 0 -15 9 -15 20 0 11 7 20 15 20 8 0 15 8 15
19 0 17 34 49 53 50 4 1 7 -15 7 -34z m-135 -49 c15 -11 20 -31 24 -105 l6
-91 -27 0 c-15 0 -30 5 -34 11 -4 8 -9 8 -17 0 -6 -6 -27 -11 -46 -11 -86 0
-97 97 -13 116 54 12 62 16 62 30 0 23 -29 28 -50 9 -20 -18 -51 -17 -57 2 -2
6 5 21 16 32 25 25 106 29 136 7z m566 -7 c21 -21 21 -22 4 -32 -13 -7 -28 -6
-50 2 -33 12 -65 6 -65 -10 0 -11 6 -13 67 -29 74 -19 91 -53 48 -95 -20 -20
-34 -25 -78 -25 -38 0 -62 6 -77 18 -31 25 -18 46 24 37 55 -11 79 -10 83 2 3
7 -1 15 -9 17 -7 2 -31 9 -54 15 -28 7 -44 19 -52 37 -13 26 -10 36 16 67 23
26 115 24 143 -4z m228 -21 c30 -100 31 -100 55 -28 21 61 25 65 56 68 28 3
32 1 26 -15 -4 -10 -26 -67 -48 -128 -22 -60 -47 -118 -56 -127 -9 -11 -29
-18 -54 -18 -31 0 -38 3 -38 20 0 13 7 20 19 20 10 0 24 7 31 15 13 16 10 28
-43 168 l-26 67 33 0 c30 0 34 -4 45 -42z m348 7 c32 -32 35 -39 30 -78 -16
-117 -191 -135 -213 -22 -14 78 29 135 103 135 38 0 50 -5 80 -35z m135 -47
c2 -64 6 -83 18 -85 33 -6 45 15 48 91 l4 76 29 0 29 0 0 -105 0 -105 -30 0
c-17 0 -30 5 -30 12 0 9 -3 9 -12 0 -7 -7 -28 -12 -48 -12 -57 0 -71 24 -77
124 l-6 86 36 0 36 0 3 -82z m310 76 c14 -9 -12 -44 -32 -44 -28 0 -40 -30
-40 -99 l0 -61 -30 0 -30 0 0 104 0 105 62 0 c35 -1 66 -3 70 -5z m313 -17
c10 -15 15 -46 15 -104 l0 -83 -30 0 -30 0 0 74 c0 83 -13 106 -49 86 -18 -9
-21 -20 -21 -85 l0 -75 -30 0 -30 0 0 104 0 104 80 0 c71 1 81 -1 95 -21z
m217 6 c11 -12 17 -46 20 -105 l4 -88 -28 0 c-15 0 -28 5 -28 10 0 7 -6 7 -19
0 -29 -15 -77 -12 -95 6 -19 19 -21 67 -3 82 7 6 32 15 56 21 50 11 55 15 48
36 -8 19 -31 19 -51 0 -17 -17 -34 -19 -55 -6 -11 7 -9 14 12 35 21 21 36 26
75 26 34 0 54 -5 64 -17z m231 5 c13 -7 23 -6 30 1 18 18 75 13 97 -9 17 -17
20 -33 20 -105 l0 -85 -30 0 -30 0 0 74 c0 81 -15 111 -45 86 -11 -9 -15 -33
-15 -86 l0 -74 -35 0 -34 0 -3 82 c-3 85 -13 102 -42 73 -12 -12 -16 -35 -16
-86 l0 -69 -30 0 -30 0 0 104 0 104 72 0 c40 0 81 -4 91 -10z m348 -17 c19
-20 29 -40 29 -60 l0 -31 -65 0 c-68 0 -83 -13 -50 -40 13 -11 20 -11 40 0 14
8 35 10 52 5 l28 -7 -28 -24 c-33 -28 -100 -33 -134 -9 -33 23 -48 83 -33 129
15 45 44 66 93 66 29 0 46 -7 68 -29z"/>
</g>
</svg>
