<?xml version="1.0" standalone="no"?>
<!DOCTYPE svg PUBLIC "-//W3C//DTD SVG 20010904//EN"
 "http://www.w3.org/TR/2001/REC-SVG-20010904/DTD/svg10.dtd">
<svg version="1.0" xmlns="http://www.w3.org/2000/svg"
 width="313.000000pt" height="180.000000pt" viewBox="0 0 313.000000 180.000000"
 preserveAspectRatio="xMidYMid meet">
<metadata>
Created by potrace 1.16, written by Peter Selinger 2001-2019
</metadata>
<g transform="translate(0.000000,180.000000) scale(0.100000,-0.100000)"
fill="#000000" stroke="none">
<path d="M0 900 l0 -900 1565 0 1565 0 0 900 0 900 -1565 0 -1565 0 0 -900z
m1150 65 l0 -55 55 0 55 0 0 55 0 55 35 0 35 0 0 -145 0 -145 -35 0 -35 0 0
65 0 65 -55 0 -55 0 0 -65 0 -65 -30 0 -30 0 0 145 0 145 30 0 c30 0 30 -1 30
-55z m530 -90 l0 -145 -30 0 -30 0 0 145 0 145 30 0 30 0 0 -145z m543 133
c60 -31 62 -79 7 -133 -22 -21 -40 -45 -40 -52 0 -8 -12 -13 -31 -13 -29 0
-31 2 -25 28 4 15 23 42 42 60 40 39 43 58 10 73 -25 12 -66 -2 -66 -21 0 -6
-13 -10 -30 -10 -32 0 -39 15 -17 42 29 37 105 50 150 26z m-671 -97 c28 -25
33 -36 33 -76 0 -40 -5 -51 -33 -76 -46 -41 -111 -41 -153 0 -24 24 -29 38
-29 76 0 38 5 52 29 76 42 41 107 41 153 0z m333 15 c15 -11 20 -31 24 -104
l6 -90 -80 0 c-90 0 -115 12 -115 58 0 32 14 46 55 55 58 13 65 16 65 31 0 22
-29 28 -49 10 -23 -21 -50 -21 -58 1 -16 42 105 74 152 39z"/>
</g>
</svg>
