<?xml version="1.0" standalone="no"?>
<!DOCTYPE svg PUBLIC "-//W3C//DTD SVG 20010904//EN"
 "http://www.w3.org/TR/2001/REC-SVG-20010904/DTD/svg10.dtd">
<svg version="1.0" xmlns="http://www.w3.org/2000/svg"
 width="392.000000pt" height="158.000000pt" viewBox="0 0 392.000000 158.000000"
 preserveAspectRatio="xMidYMid meet">
<metadata>
Created by potrace 1.16, written by Peter Selinger 2001-2019
</metadata>
<g transform="translate(0.000000,158.000000) scale(0.100000,-0.100000)"
fill="#000000" stroke="none">
<path d="M0 790 l0 -790 1960 0 1960 0 0 790 0 790 -1960 0 -1960 0 0 -790z
m840 20 c24 -24 26 -63 5 -80 -14 -12 -13 -15 5 -32 27 -25 26 -75 -2 -105
-19 -21 -30 -23 -110 -23 l-88 0 0 130 0 130 85 0 c72 0 88 -3 105 -20z m1910
-20 c0 -37 2 -40 19 -30 29 15 67 12 85 -6 12 -12 16 -36 16 -100 0 -83 0 -84
-25 -84 -24 0 -25 2 -25 69 0 71 -13 97 -43 86 -17 -7 -27 -48 -27 -111 0 -40
-2 -44 -25 -44 l-25 0 0 130 0 130 25 0 c23 0 25 -4 25 -40z m-1780 -95 c0
-58 3 -77 15 -81 31 -12 45 15 45 87 l0 69 30 0 30 0 0 -99 0 -99 -75 0 c-96
-1 -105 10 -105 120 l0 78 30 0 30 0 0 -75z m298 52 c12 -13 25 -37 28 -55 l7
-32 -67 0 c-68 0 -78 -7 -50 -34 18 -18 30 -20 39 -6 9 14 52 13 61 -2 12 -19
-35 -48 -78 -48 -58 0 -88 34 -88 100 0 41 5 56 25 75 33 34 93 34 123 2z
m112 13 c0 -7 6 -7 19 0 11 5 33 10 50 10 46 0 61 -30 61 -122 l0 -78 -30 0
-30 0 0 74 c0 59 -3 75 -16 80 -31 12 -44 -13 -44 -85 l0 -69 -30 0 -30 0 0
100 0 100 25 0 c14 0 25 -5 25 -10z m312 -7 c11 -12 17 -44 20 -99 l3 -81 -70
-1 c-76 0 -105 14 -105 53 0 32 21 52 68 65 23 6 42 15 42 21 0 15 -30 23 -43
10 -14 -14 -44 -14 -52 0 -4 5 1 19 11 30 23 26 104 27 126 2z m201 -1 c28
-31 -12 -45 -53 -20 -15 9 -22 10 -31 1 -17 -17 -4 -30 36 -37 39 -8 75 -37
75 -61 0 -9 -11 -27 -25 -40 -18 -19 -35 -25 -68 -25 -53 0 -100 30 -80 51 10
10 20 10 52 -1 38 -12 61 -8 61 10 0 5 -18 14 -41 20 -108 29 -101 120 9 120
35 0 54 -5 65 -18z m320 1 c14 -13 17 -33 17 -100 0 -82 0 -83 -25 -83 -24 0
-25 3 -25 61 0 59 -12 99 -30 99 -26 0 -40 -34 -40 -96 0 -62 -1 -64 -25 -64
-25 0 -25 0 -25 99 l0 99 68 0 c47 0 72 -4 85 -15z m218 -12 c63 -64 20 -171
-69 -171 -59 0 -92 35 -92 98 0 40 5 54 26 76 38 38 95 36 135 -3z m210 8 c11
-11 18 -26 16 -32 -6 -19 -37 -20 -56 -3 -23 21 -47 12 -55 -20 -15 -60 24
-104 56 -64 24 29 69 21 61 -10 -14 -53 -105 -68 -148 -25 -20 19 -25 34 -25
75 0 41 5 56 25 75 32 32 96 34 126 4z m414 -4 c16 -15 25 -36 25 -55 l0 -30
-60 0 c-63 0 -77 -13 -44 -41 12 -10 20 -10 35 -1 23 14 56 16 64 2 12 -20
-34 -50 -78 -50 -70 0 -111 63 -87 136 22 66 98 86 145 39z m206 6 l24 -19
-28 -7 c-16 -4 -33 -3 -42 5 -14 12 -55 5 -55 -9 0 -5 26 -17 58 -27 54 -18
57 -21 60 -56 4 -45 -24 -68 -84 -68 -51 0 -97 31 -76 51 9 10 19 11 46 1 33
-12 66 -8 66 9 0 4 -19 13 -42 20 -76 20 -98 59 -58 99 27 27 99 27 131 1z"/>
</g>
</svg>
